<svg width="797" height="370" viewBox="0 0 797 370" fill="none" xmlns="http://www.w3.org/2000/svg">
<rect x="5" y="5" width="787" height="360" fill="white" stroke="black" stroke-width="10"/>
<path d="M116.178 52.5265L122.211 71.4432L122.905 73.6179L125.002 74.5184L143.479 82.4504L125.002 90.3824L122.905 91.2829L122.211 93.4576L116.178 112.374L110.145 93.4576L109.451 91.2829L107.354 90.3824L88.8776 82.4504L107.354 74.5184L109.451 73.6179L110.145 71.4432L116.178 52.5265Z" fill="white" stroke="black" stroke-width="10"/>
<path d="M116.178 248.349L122.211 267.265L122.905 269.44L125.002 270.34L143.479 278.272L125.002 286.204L122.905 287.105L122.211 289.28L116.178 308.196L110.145 289.28L109.451 287.105L107.354 286.204L88.8776 278.272L107.354 270.34L109.451 269.44L110.145 267.265L116.178 248.349Z" fill="white" stroke="black" stroke-width="10"/>
<path d="M252.342 155.591L258.375 174.508L259.069 176.682L261.167 177.583L279.643 185.515L261.167 193.447L259.069 194.347L258.375 196.522L252.342 215.439L246.309 196.522L245.615 194.347L243.518 193.447L225.042 185.515L243.518 177.583L245.615 176.682L246.309 174.508L252.342 155.591Z" fill="white" stroke="black" stroke-width="10"/>
<path d="M371.014 155.591L377.047 174.508L377.741 176.682L379.838 177.583L398.314 185.515L379.838 193.447L377.741 194.347L377.047 196.522L371.014 215.439L364.981 196.522L364.287 194.347L362.19 193.447L343.714 185.515L362.19 177.583L364.287 176.682L364.981 174.508L371.014 155.591Z" fill="white" stroke="black" stroke-width="10"/>
<path d="M520.92 155.591L526.954 174.508L527.647 176.682L529.745 177.583L548.221 185.515L529.745 193.447L527.647 194.347L526.954 196.522L520.92 215.439L514.887 196.522L514.193 194.347L512.096 193.447L493.62 185.515L512.096 177.583L514.193 176.682L514.887 174.508L520.92 155.591Z" fill="white" stroke="black" stroke-width="10"/>
<path d="M680.826 52.5265L686.86 71.4432L687.553 73.6179L689.651 74.5184L708.127 82.4504L689.651 90.3824L687.553 91.2829L686.86 93.4576L680.826 112.374L674.793 93.4576L674.1 91.2829L672.002 90.3824L653.526 82.4504L672.002 74.5184L674.1 73.6179L674.793 71.4432L680.826 52.5265Z" fill="white" stroke="black" stroke-width="10"/>
<path d="M680.826 261.748L686.86 280.665L687.553 282.84L689.651 283.74L708.127 291.672L689.651 299.604L687.553 300.505L686.86 302.679L680.826 321.596L674.793 302.679L674.1 300.505L672.002 299.604L653.526 291.672L672.002 283.74L674.1 282.84L674.793 280.665L680.826 261.748Z" fill="white" stroke="black" stroke-width="10"/>
</svg>
