<svg width="797" height="365" viewBox="0 0 797 365" fill="none" xmlns="http://www.w3.org/2000/svg">
<rect x="5" y="5" width="787" height="355" fill="white" stroke="black" stroke-width="10"/>
<path d="M239.85 64.0387L245.889 82.7184L246.592 84.8931L248.697 85.7844L267.004 93.5375L248.697 101.291L246.592 102.182L245.889 104.357L239.85 123.036L233.811 104.357L233.108 102.182L231.003 101.291L212.696 93.5375L231.003 85.7844L233.108 84.8931L233.811 82.7184L239.85 64.0387Z" fill="white" stroke="black" stroke-width="10"/>
<path d="M91.1937 146.392L97.233 165.072L97.9361 167.247L100.041 168.138L118.347 175.891L100.041 183.644L97.9361 184.536L97.233 186.71L91.1937 205.39L85.1543 186.71L84.4513 184.536L82.3467 183.644L64.04 175.891L82.3467 168.138L84.4513 167.247L85.1543 165.072L91.1937 146.392Z" fill="white" stroke="black" stroke-width="10"/>
<path d="M239.85 256.198L245.889 274.877L246.592 277.052L248.697 277.943L267.004 285.696L248.697 293.45L246.592 294.341L245.889 296.515L239.85 315.195L233.811 296.515L233.108 294.341L231.003 293.45L212.696 285.696L231.003 277.943L233.108 277.052L233.811 274.877L239.85 256.198Z" fill="white" stroke="black" stroke-width="10"/>
<path d="M640.85 260.265L646.889 278.944L647.592 281.119L649.697 282.01L668.004 289.763L649.697 297.516L647.592 298.408L646.889 300.582L640.85 319.262L634.811 300.582L634.108 298.408L632.003 297.516L613.696 289.763L632.003 282.01L634.108 281.119L634.811 278.944L640.85 260.265Z" fill="white" stroke="black" stroke-width="10"/>
<path d="M649.592 64.0387L655.631 82.7184L656.335 84.8931L658.439 85.7844L676.746 93.5375L658.439 101.291L656.335 102.182L655.631 104.357L649.592 123.036L643.553 104.357L642.85 102.182L640.745 101.291L622.438 93.5375L640.745 85.7844L642.85 84.8931L643.553 82.7184L649.592 64.0387Z" fill="white" stroke="black" stroke-width="10"/>
<path d="M668.334 164.693L674.374 183.373L675.077 185.548L677.181 186.439L695.488 194.192L677.181 201.945L675.077 202.837L674.374 205.011L668.334 223.691L662.295 205.011L661.592 202.837L659.487 201.945L641.181 194.192L659.487 186.439L661.592 185.548L662.295 183.373L668.334 164.693Z" fill="white" stroke="black" stroke-width="10"/>
</svg>
