<svg width="797" height="370" viewBox="0 0 797 370" fill="none" xmlns="http://www.w3.org/2000/svg">
<rect x="5" y="5" width="787" height="360" fill="white" stroke="black" stroke-width="10"/>
<path d="M398.498 51.4967L404.532 70.4134L405.225 72.5881L407.323 73.4886L425.799 81.4206L407.323 89.3526L405.225 90.2531L404.532 92.4278L398.498 111.344L392.465 92.4278L391.771 90.2531L389.674 89.3526L371.198 81.4206L389.674 73.4886L391.771 72.5881L392.465 70.4134L398.498 51.4967Z" fill="white" stroke="black" stroke-width="10"/>
<path d="M214.866 149.408L220.899 168.324L221.592 170.499L223.69 171.399L242.166 179.331L223.69 187.263L221.592 188.164L220.899 190.339L214.866 209.255L208.832 190.339L208.139 188.164L206.041 187.263L187.565 179.331L206.041 171.399L208.139 170.499L208.832 168.324L214.866 149.408Z" fill="white" stroke="black" stroke-width="10"/>
<path d="M239.85 259.686L245.883 278.603L246.577 280.778L248.674 281.678L267.15 289.61L248.674 297.542L246.577 298.443L245.883 300.617L239.85 319.534L233.817 300.617L233.123 298.443L231.026 297.542L212.549 289.61L231.026 281.678L233.123 280.778L233.817 278.603L239.85 259.686Z" fill="white" stroke="black" stroke-width="10"/>
<path d="M374.764 259.686L380.797 278.603L381.491 280.778L383.588 281.678L402.064 289.61L383.588 297.542L381.491 298.443L380.797 300.617L374.764 319.534L368.731 300.617L368.037 298.443L365.94 297.542L347.464 289.61L365.94 281.678L368.037 280.778L368.731 278.603L374.764 259.686Z" fill="white" stroke="black" stroke-width="10"/>
<path d="M494.686 259.686L500.719 278.603L501.413 280.778L503.51 281.678L521.986 289.61L503.51 297.542L501.413 298.443L500.719 300.617L494.686 319.534L488.653 300.617L487.959 298.443L485.861 297.542L467.385 289.61L485.861 281.678L487.959 280.778L488.653 278.603L494.686 259.686Z" fill="white" stroke="black" stroke-width="10"/>
<path d="M668.334 263.809L674.368 282.725L675.061 284.9L677.159 285.801L695.635 293.733L677.159 301.665L675.061 302.565L674.368 304.74L668.334 323.656L662.301 304.74L661.607 302.565L659.51 301.665L641.034 293.733L659.51 285.801L661.607 284.9L662.301 282.725L668.334 263.809Z" fill="white" stroke="black" stroke-width="10"/>
<path d="M668.334 54.5888L674.368 73.5054L675.061 75.6801L677.159 76.5806L695.635 84.5126L677.159 92.4446L675.061 93.3451L674.368 95.5198L668.334 114.436L662.301 95.5198L661.607 93.3451L659.51 92.4446L641.034 84.5126L659.51 76.5806L661.607 75.6801L662.301 73.5054L668.334 54.5888Z" fill="white" stroke="black" stroke-width="10"/>
<path d="M549.655 74.1708L555.688 93.0875L556.381 95.2622L558.479 96.1627L576.955 104.095L558.479 112.027L556.381 112.927L555.688 115.102L549.655 134.019L543.621 115.102L542.928 112.927L540.83 112.027L522.354 104.095L540.83 96.1627L542.928 95.2622L543.621 93.0875L549.655 74.1708Z" fill="white" stroke="black" stroke-width="10"/>
<path d="M334.787 157.653L340.821 176.569L341.514 178.744L343.612 179.645L362.088 187.577L343.612 195.509L341.514 196.409L340.821 198.584L334.787 217.5L328.754 198.584L328.061 196.409L325.963 195.509L307.487 187.577L325.963 179.645L328.061 178.744L328.754 176.569L334.787 157.653Z" fill="white" stroke="black" stroke-width="10"/>
<path d="M454.717 157.653L460.75 176.569L461.444 178.744L463.542 179.645L482.018 187.577L463.542 195.509L461.444 196.409L460.75 198.584L454.717 217.5L448.684 198.584L447.99 196.409L445.893 195.509L427.417 187.577L445.893 179.645L447.99 178.744L448.684 176.569L454.717 157.653Z" fill="white" stroke="black" stroke-width="10"/>
<path d="M668.334 166.929L674.368 185.845L675.061 188.02L677.159 188.92L695.635 196.852L677.159 204.784L675.061 205.685L674.368 207.86L668.334 226.776L662.301 207.86L661.607 205.685L659.51 204.784L641.034 196.852L659.51 188.92L661.607 188.02L662.301 185.845L668.334 166.929Z" fill="white" stroke="black" stroke-width="10"/>
</svg>
