<svg width="797" height="365" viewBox="0 0 797 365" fill="none" xmlns="http://www.w3.org/2000/svg">
<rect x="5" y="5" width="787" height="355" fill="white" stroke="black" stroke-width="10"/>
<path d="M116.178 49.8048L122.217 68.4845L122.92 70.6592L125.025 71.5505L143.332 79.3036L125.025 87.0567L122.92 87.948L122.217 90.1227L116.178 108.802L110.139 90.1227L109.436 87.948L107.331 87.0567L89.0243 79.3036L107.331 71.5505L109.436 70.6592L110.139 68.4845L116.178 49.8048Z" fill="white" stroke="black" stroke-width="10"/>
<path d="M116.178 242.98L122.217 261.66L122.92 263.835L125.025 264.726L143.332 272.479L125.025 280.232L122.92 281.124L122.217 283.298L116.178 301.978L110.139 283.298L109.436 281.124L107.331 280.232L89.0243 272.479L107.331 264.726L109.436 263.835L110.139 261.66L116.178 242.98Z" fill="white" stroke="black" stroke-width="10"/>
<path d="M680.826 49.8048L686.866 68.4845L687.569 70.6592L689.673 71.5505L707.98 79.3036L689.673 87.0567L687.569 87.948L686.866 90.1227L680.826 108.802L674.787 90.1227L674.084 87.948L671.98 87.0567L653.673 79.3036L671.98 71.5505L674.084 70.6592L674.787 68.4845L680.826 49.8048Z" fill="white" stroke="black" stroke-width="10"/>
<path d="M680.826 256.198L686.866 274.877L687.569 277.052L689.673 277.943L707.98 285.696L689.673 293.45L687.569 294.341L686.866 296.515L680.826 315.195L674.787 296.515L674.084 294.341L671.98 293.45L653.673 285.696L671.98 277.943L674.084 277.052L674.787 274.877L680.826 256.198Z" fill="white" stroke="black" stroke-width="10"/>
</svg>
