<svg width="797" height="370" viewBox="0 0 797 370" fill="none" xmlns="http://www.w3.org/2000/svg">
<rect x="5" y="5" width="787" height="360" fill="white" stroke="black" stroke-width="10"/>
<path d="M196.123 52.5285L202.157 71.4451L202.85 73.6198L204.948 74.5203L223.424 82.4523L204.948 90.3843L202.85 91.2848L202.157 93.4595L196.123 112.376L190.09 93.4595L189.396 91.2848L187.299 90.3843L168.823 82.4523L187.299 74.5203L189.396 73.6198L190.09 71.4451L196.123 52.5285Z" fill="white" stroke="black" stroke-width="10"/>
<path d="M196.123 258.656L202.157 277.572L202.85 279.747L204.948 280.648L223.424 288.58L204.948 296.512L202.85 297.412L202.157 299.587L196.123 318.503L190.09 299.587L189.396 297.412L187.299 296.512L168.823 288.58L187.299 280.648L189.396 279.747L190.09 277.572L196.123 258.656Z" fill="white" stroke="black" stroke-width="10"/>
<path d="M331.045 52.5285L337.079 71.4451L337.772 73.6198L339.87 74.5203L358.346 82.4523L339.87 90.3843L337.772 91.2848L337.079 93.4595L331.045 112.376L325.012 93.4595L324.318 91.2848L322.221 90.3843L303.745 82.4523L322.221 74.5203L324.318 73.6198L325.012 71.4451L331.045 52.5285Z" fill="white" stroke="black" stroke-width="10"/>
<path d="M331.045 258.656L337.079 277.572L337.772 279.747L339.87 280.648L358.346 288.58L339.87 296.512L337.772 297.412L337.079 299.587L331.045 318.503L325.012 299.587L324.318 297.412L322.221 296.512L303.745 288.58L322.221 280.648L324.318 279.747L325.012 277.572L331.045 258.656Z" fill="white" stroke="black" stroke-width="10"/>
<path d="M252.342 155.593L258.375 174.51L259.069 176.685L261.167 177.585L279.643 185.517L261.167 193.449L259.069 194.349L258.375 196.524L252.342 215.441L246.309 196.524L245.615 194.349L243.518 193.449L225.042 185.517L243.518 177.585L245.615 176.685L246.309 174.51L252.342 155.593Z" fill="white" stroke="black" stroke-width="10"/>
<path d="M467.209 155.593L473.243 174.51L473.936 176.685L476.034 177.585L494.51 185.517L476.034 193.449L473.936 194.349L473.243 196.524L467.209 215.441L461.176 196.524L460.482 194.349L458.385 193.449L439.909 185.517L458.385 177.585L460.482 176.685L461.176 174.51L467.209 155.593Z" fill="white" stroke="black" stroke-width="10"/>
<path d="M465.959 52.5285L471.993 71.4451L472.686 73.6198L474.784 74.5203L493.26 82.4523L474.784 90.3843L472.686 91.2848L471.993 93.4595L465.959 112.376L459.926 93.4595L459.232 91.2848L457.135 90.3843L438.659 82.4523L457.135 74.5203L459.232 73.6198L459.926 71.4451L465.959 52.5285Z" fill="white" stroke="black" stroke-width="10"/>
<path d="M465.959 258.656L471.993 277.572L472.686 279.747L474.784 280.648L493.26 288.58L474.784 296.512L472.686 297.412L471.993 299.587L465.959 318.503L459.926 299.587L459.232 297.412L457.135 296.512L438.659 288.58L457.135 280.648L459.232 279.747L459.926 277.572L465.959 258.656Z" fill="white" stroke="black" stroke-width="10"/>
<path d="M600.873 52.5285L606.907 71.4451L607.6 73.6198L609.698 74.5203L628.174 82.4523L609.698 90.3843L607.6 91.2848L606.907 93.4595L600.873 112.376L594.84 93.4595L594.146 91.2848L592.049 90.3843L573.573 82.4523L592.049 74.5203L594.146 73.6198L594.84 71.4451L600.873 52.5285Z" fill="white" stroke="black" stroke-width="10"/>
<path d="M600.873 258.656L606.907 277.572L607.6 279.747L609.698 280.648L628.174 288.58L609.698 296.512L607.6 297.412L606.907 299.587L600.873 318.503L594.84 299.587L594.146 297.412L592.049 296.512L573.573 288.58L592.049 280.648L594.146 279.747L594.84 277.572L600.873 258.656Z" fill="white" stroke="black" stroke-width="10"/>
</svg>
