<svg width="667" height="600" viewBox="0 0 667 600" fill="none" xmlns="http://www.w3.org/2000/svg">
<rect x="54.5693" y="131.198" width="81" height="646" transform="rotate(-51.7099 54.5693 131.198)" fill="white" stroke="black" stroke-width="8"/>
<rect x="199.484" y="346.256" width="81" height="239" transform="rotate(-141.71 199.484 346.256)" fill="white" stroke="black" stroke-width="8"/>
<rect x="70" y="249.791" width="80" height="80" transform="rotate(-51.7099 70 249.791)" fill="black"/>
<path d="M251.966 77.7858L258.575 133.967L202.394 140.576L195.785 84.3953L251.966 77.7858Z" fill="black"/>
<circle cx="359.18" cy="214.181" r="40" transform="rotate(38.2901 359.18 214.181)" fill="black"/>
<path d="M272.966 306.786L262.888 334.044L285.698 352.052L256.659 350.891L246.581 378.149L238.713 350.173L209.674 349.012L233.849 332.883L225.98 304.907L248.79 322.915L272.966 306.786Z" fill="black"/>
</svg>
