<svg width="690" height="367" viewBox="0 0 690 367" fill="none" xmlns="http://www.w3.org/2000/svg">
<rect x="670.012" y="204.941" width="81" height="646" transform="rotate(100.913 670.012 204.941)" fill="white" stroke="black" stroke-width="8"/>
<rect x="442.436" y="80.6078" width="81" height="239" transform="rotate(10.9131 442.436 80.6078)" fill="white" stroke="black" stroke-width="8"/>
<rect x="601.773" y="106.727" width="80" height="80" transform="rotate(100.913 601.773 106.727)" fill="black"/>
<path d="M519.284 343.144L487.58 296.295L534.429 264.591L566.133 311.44L519.284 343.144Z" fill="black"/>
<circle cx="361.361" cy="271.324" r="40" transform="rotate(-169.087 361.361 271.324)" fill="black"/>
<path d="M395.331 149.447L391.745 120.607L363.209 115.105L389.529 102.783L385.944 73.9435L405.796 95.1678L432.116 82.8458L418.065 108.285L437.918 129.509L409.382 124.007L395.331 149.447Z" fill="black"/>
</svg>
