<svg width="60" height="121" viewBox="0 0 203 406" fill="none" xmlns="http://www.w3.org/2000/svg">
<path d="M102 0V405" stroke="black" stroke-width="5"/>
<path fill-rule="evenodd" clip-rule="evenodd" d="M102.055 0.000610352C46.2236 0.107346 0.996727 45.4001 0.996727 101.256C0.996727 157.112 46.2236 202.405 102.055 202.512L102.055 0.000610352Z" fill="black"/>
<mask id="path-3-inside-1_596_1344" fill="white">
<path fill-rule="evenodd" clip-rule="evenodd" d="M101.68 202.706C157.511 202.812 202.738 248.105 202.738 303.961C202.738 359.817 157.511 405.11 101.68 405.217L101.68 202.706Z"/>
</mask>
<path fill-rule="evenodd" clip-rule="evenodd" d="M101.68 202.706C157.511 202.812 202.738 248.105 202.738 303.961C202.738 359.817 157.511 405.11 101.68 405.217L101.68 202.706Z" fill="white"/>
<path d="M101.68 202.706L101.689 197.706L96.6797 197.696V202.706H101.68ZM101.68 405.217H96.6797V410.226L101.689 410.217L101.68 405.217ZM101.67 207.706C154.744 207.807 197.738 250.863 197.738 303.961H207.738C207.738 245.347 160.277 197.818 101.689 197.706L101.67 207.706ZM197.738 303.961C197.738 357.059 154.744 400.115 101.67 400.217L101.689 410.217C160.277 410.105 207.738 362.576 207.738 303.961H197.738ZM106.68 405.217L106.68 202.706H96.6797L96.6797 405.217H106.68Z" fill="black" mask="url(#path-3-inside-1_596_1344)"/>
</svg>
