<svg width="60" height="121" viewBox="0 0 202 405" fill="none" xmlns="http://www.w3.org/2000/svg">
<path d="M101.365 0V404.783" stroke="black" stroke-width="5"/>
<path fill-rule="evenodd" clip-rule="evenodd" d="M101.309 0.000564575C156.935 0.106796 201.996 45.3755 201.996 101.202C201.996 157.028 156.935 202.297 101.309 202.403L101.309 0.000564575Z" fill="black"/>
<mask id="path-3-inside-1_596_1347" fill="white">
<path fill-rule="evenodd" clip-rule="evenodd" d="M101.684 202.597C46.0572 202.703 0.995956 247.972 0.995956 303.799C0.995956 359.625 46.0572 404.894 101.684 405L101.684 202.597Z"/>
</mask>
<path fill-rule="evenodd" clip-rule="evenodd" d="M101.684 202.597C46.0572 202.703 0.995956 247.972 0.995956 303.799C0.995956 359.625 46.0572 404.894 101.684 405L101.684 202.597Z" fill="white"/>
<path d="M101.684 202.597L101.674 197.597L106.684 197.588V202.597H101.684ZM101.684 405H106.684V410.01L101.674 410L101.684 405ZM101.693 207.597C48.8387 207.698 5.99596 250.716 5.99596 303.799H-4.00404C-4.00404 245.229 43.2757 197.709 101.674 197.597L101.693 207.597ZM5.99596 303.799C5.99596 356.882 48.8387 399.899 101.693 400L101.674 410C43.2757 409.888 -4.00404 362.369 -4.00404 303.799H5.99596ZM96.6836 405L96.6836 202.597H106.684L106.684 405H96.6836Z" fill="black" mask="url(#path-3-inside-1_596_1347)"/>
</svg>
