<svg width="60" height="121" viewBox="0 0 200 406" fill="none" xmlns="http://www.w3.org/2000/svg">
<path d="M100.609 0V405" stroke="black" stroke-width="5"/>
<mask id="path-2-inside-1_596_1345" fill="white">
<path fill-rule="evenodd" clip-rule="evenodd" d="M102.055 202.706C46.2236 202.812 0.996719 248.105 0.996719 303.961C0.996719 359.817 46.2236 405.11 102.055 405.217L102.055 202.706Z"/>
</mask>
<path fill-rule="evenodd" clip-rule="evenodd" d="M102.055 202.706C46.2236 202.812 0.996719 248.105 0.996719 303.961C0.996719 359.817 46.2236 405.11 102.055 405.217L102.055 202.706Z" fill="white"/>
<path d="M102.055 202.706L102.045 197.706L107.055 197.696V202.706H102.055ZM102.055 405.217H107.055V410.226L102.045 410.217L102.055 405.217ZM102.064 207.706C48.9903 207.807 5.99672 250.863 5.99672 303.961H-4.00328C-4.00328 245.347 43.4569 197.818 102.045 197.706L102.064 207.706ZM5.99672 303.961C5.99672 357.059 48.9903 400.115 102.064 400.217L102.045 410.217C43.4569 410.105 -4.00328 362.576 -4.00328 303.961H5.99672ZM97.0547 405.217L97.0547 202.706H107.055L107.055 405.217H97.0547Z" fill="black" mask="url(#path-2-inside-1_596_1345)"/>
<mask id="path-4-inside-2_596_1345" fill="white">
<path fill-rule="evenodd" clip-rule="evenodd" d="M98.2891 0.000610339C154.12 0.107346 199.347 45.4001 199.347 101.256C199.347 157.112 154.12 202.405 98.2891 202.512L98.2891 0.000610339Z"/>
</mask>
<path fill-rule="evenodd" clip-rule="evenodd" d="M98.2891 0.000610339C154.12 0.107346 199.347 45.4001 199.347 101.256C199.347 157.112 154.12 202.405 98.2891 202.512L98.2891 0.000610339Z" fill="white"/>
<path d="M98.2891 0.000610339L98.2986 -4.99938L93.2891 -5.00896V0.000610339H98.2891ZM98.2891 202.512H93.2891V207.521L98.2986 207.512L98.2891 202.512ZM98.2795 5.0006C151.353 5.10207 194.347 48.1583 194.347 101.256H204.347C204.347 42.6419 156.887 -4.88737 98.2986 -4.99938L98.2795 5.0006ZM194.347 101.256C194.347 154.354 151.353 197.41 98.2795 197.512L98.2986 207.512C156.887 207.4 204.347 159.87 204.347 101.256H194.347ZM103.289 202.512L103.289 0.000610339H93.2891L93.2891 202.512H103.289Z" fill="black" mask="url(#path-4-inside-2_596_1345)"/>
</svg>
