<svg width="666" height="751" viewBox="0 0 666 751" fill="none" xmlns="http://www.w3.org/2000/svg">
<rect x="5" y="5" width="656" height="741" fill="white" stroke="black" stroke-width="10"/>
<path d="M128.5 46C128.5 57.6666 121.77 68.481 110.379 76.481C98.9947 84.4759 83.1355 89.5 65.5 89.5C47.8645 89.5 32.0053 84.4759 20.6213 76.481C9.22998 68.481 2.5 57.6666 2.5 46C2.5 34.3334 9.22998 23.519 20.6213 15.519C32.0053 7.52412 47.8645 2.5 65.5 2.5C83.1355 2.5 98.9947 7.52412 110.379 15.519C121.77 23.519 128.5 34.3334 128.5 46Z" fill="white" stroke="black" stroke-width="5"/>
<path d="M426.224 92H237.159L158 228.249L237.159 376H426.224L508 228.249L426.224 92Z" fill="black" stroke="black" stroke-width="5"/>
<path d="M426.224 376H237.159L158 512.249L237.159 660H426.224L508 512.249L426.224 376Z" fill="white" stroke="black" stroke-width="10"/>
</svg>
