<svg width="666" height="752" viewBox="0 0 666 752" fill="none" xmlns="http://www.w3.org/2000/svg">
<rect x="5" y="5" width="656" height="741" fill="white" stroke="black" stroke-width="10"/>
<path d="M128.5 706C128.5 717.667 121.77 728.481 110.379 736.481C98.9947 744.476 83.1355 749.5 65.5 749.5C47.8645 749.5 32.0053 744.476 20.6213 736.481C9.22998 728.481 2.5 717.667 2.5 706C2.5 694.333 9.22998 683.519 20.6213 675.519C32.0053 667.524 47.8645 662.5 65.5 662.5C83.1355 662.5 98.9947 667.524 110.379 675.519C121.77 683.519 128.5 694.333 128.5 706Z" fill="white" stroke="black" stroke-width="5"/>
<path d="M426.224 92H237.159L158 228.249L237.159 376H426.224L508 228.249L426.224 92Z" fill="black" stroke="black" stroke-width="5"/>
<path d="M426.224 376H237.159L158 512.249L237.159 660H426.224L508 512.249L426.224 376Z" fill="white" stroke="black" stroke-width="10"/>
</svg>
