<svg width="666" height="751" viewBox="0 0 666 751" fill="none" xmlns="http://www.w3.org/2000/svg">
<rect x="5" y="5" width="656" height="741" fill="white" stroke="black" stroke-width="10"/>
<path d="M657.5 46C657.5 57.6666 650.77 68.481 639.379 76.481C627.995 84.4759 612.136 89.5 594.5 89.5C576.864 89.5 561.005 84.4759 549.621 76.481C538.23 68.481 531.5 57.6666 531.5 46C531.5 34.3334 538.23 23.519 549.621 15.519C561.005 7.52412 576.864 2.5 594.5 2.5C612.136 2.5 627.995 7.52412 639.379 15.519C650.77 23.519 657.5 34.3334 657.5 46Z" fill="white" stroke="black" stroke-width="5"/>
<path d="M426.224 92H237.159L158 228.249L237.159 376H426.224L508 228.249L426.224 92Z" fill="black" stroke="black" stroke-width="5"/>
<path d="M426.224 376H237.159L158 512.249L237.159 660H426.224L508 512.249L426.224 376Z" fill="white" stroke="black" stroke-width="10"/>
</svg>
