<svg width="1013" height="843" viewBox="0 0 1013 843" fill="none" xmlns="http://www.w3.org/2000/svg">
<path d="M1008 421.5C1008 650.706 784.37 838 506.5 838C228.63 838 5 650.706 5 421.5C5 192.294 228.63 5 506.5 5C784.37 5 1008 192.294 1008 421.5Z" fill="white" stroke="black" stroke-width="10"/>
<mask id="path-2-inside-1_4161_2952" fill="white">
<path fill-rule="evenodd" clip-rule="evenodd" d="M661.063 164H365.407V252.855H239V520.48H365.407V608.806H661.063V520.48H788V252.855H661.063V164Z"/>
</mask>
<path fill-rule="evenodd" clip-rule="evenodd" d="M661.063 164H365.407V252.855H239V520.48H365.407V608.806H661.063V520.48H788V252.855H661.063V164Z" fill="black"/>
<path d="M365.407 164V154H355.407V164H365.407ZM661.063 164H671.063V154H661.063V164ZM365.407 252.855V262.855H375.407V252.855H365.407ZM239 252.855V242.855H229V252.855H239ZM239 520.48H229V530.48H239V520.48ZM365.407 520.48H375.407V510.48H365.407V520.48ZM365.407 608.806H355.407V618.806H365.407V608.806ZM661.063 608.806V618.806H671.063V608.806H661.063ZM661.063 520.48V510.48H651.063V520.48H661.063ZM788 520.48V530.48H798V520.48H788ZM788 252.855H798V242.855H788V252.855ZM661.063 252.855H651.063V262.855H661.063V252.855ZM365.407 174H661.063V154H365.407V174ZM375.407 252.855V164H355.407V252.855H375.407ZM239 262.855H365.407V242.855H239V262.855ZM249 520.48V252.855H229V520.48H249ZM365.407 510.48H239V530.48H365.407V510.48ZM375.407 608.806V520.48H355.407V608.806H375.407ZM661.063 598.806H365.407V618.806H661.063V598.806ZM651.063 520.48V608.806H671.063V520.48H651.063ZM788 510.48H661.063V530.48H788V510.48ZM778 252.855V520.48H798V252.855H778ZM661.063 262.855H788V242.855H661.063V262.855ZM651.063 164V252.855H671.063V164H651.063Z" fill="black" mask="url(#path-2-inside-1_4161_2952)"/>
</svg>
