<svg width="977" height="792" viewBox="0 0 977 792" fill="none" xmlns="http://www.w3.org/2000/svg">
<mask id="path-1-inside-1_4161_2950" fill="white">
<path fill-rule="evenodd" clip-rule="evenodd" d="M751.105 0H224.956V158.128H0V634.392H224.956V791.577H751.105V634.392H977V158.128H751.105V0Z"/>
</mask>
<path fill-rule="evenodd" clip-rule="evenodd" d="M751.105 0H224.956V158.128H0V634.392H224.956V791.577H751.105V634.392H977V158.128H751.105V0Z" fill="white"/>
<path d="M224.956 0V-10H214.956V0H224.956ZM751.105 0H761.105V-10H751.105V0ZM224.956 158.128V168.128H234.956V158.128H224.956ZM0 158.128V148.128H-10V158.128H0ZM0 634.392H-10V644.392H0V634.392ZM224.956 634.392H234.956V624.392H224.956V634.392ZM224.956 791.577H214.956V801.577H224.956V791.577ZM751.105 791.577V801.577H761.105V791.577H751.105ZM751.105 634.392V624.392H741.105V634.392H751.105ZM977 634.392V644.392H987V634.392H977ZM977 158.128H987V148.128H977V158.128ZM751.105 158.128H741.105V168.128H751.105V158.128ZM224.956 10H751.105V-10H224.956V10ZM234.956 158.128V0H214.956V158.128H234.956ZM0 168.128H224.956V148.128H0V168.128ZM10 634.392V158.128H-10V634.392H10ZM224.956 624.392H0V644.392H224.956V624.392ZM234.956 791.577V634.392H214.956V791.577H234.956ZM751.105 781.577H224.956V801.577H751.105V781.577ZM741.105 634.392V791.577H761.105V634.392H741.105ZM977 624.392H751.105V644.392H977V624.392ZM967 158.128V634.392H987V158.128H967ZM751.105 168.128H977V148.128H751.105V168.128ZM741.105 0V158.128H761.105V0H741.105Z" fill="black" mask="url(#path-1-inside-1_4161_2950)"/>
<path d="M487 183L671.463 502.5H302.537L487 183Z" fill="black"/>
</svg>
