<svg width="957" height="801" viewBox="0 0 957 801" fill="none" xmlns="http://www.w3.org/2000/svg">
<rect x="7.5" y="7.5" width="942" height="786" fill="white" stroke="black" stroke-width="15"/>
<path d="M182.791 722.5L268.5 647.325L354.209 722.5L268.5 797.675L182.791 722.5Z" fill="white" stroke="black" stroke-width="5"/>
<path d="M3.79134 722.5L89.5 647.325L175.209 722.5L89.5 797.675L3.79134 722.5Z" fill="white" stroke="black" stroke-width="5"/>
<path d="M361.791 722.5L447.5 647.325L533.209 722.5L447.5 797.675L361.791 722.5Z" fill="white" stroke="black" stroke-width="5"/>
<path d="M540.791 722.5L626.5 647.325L712.209 722.5L626.5 797.675L540.791 722.5Z" fill="white" stroke="black" stroke-width="5"/>
<path d="M498 365.5C498 394.529 467.421 420 427 420C386.579 420 356 394.529 356 365.5C356 336.471 386.579 311 427 311C467.421 311 498 336.471 498 365.5Z" fill="black" stroke="black" stroke-width="10"/>
<path d="M921 292L846 335.301V248.699L921 292ZM853.5 299.5L466 299.5V284.5L853.5 284.5V299.5Z" fill="black"/>
</svg>
