<svg width="957" height="801" viewBox="0 0 957 801" fill="none" xmlns="http://www.w3.org/2000/svg">
<rect x="7.5" y="7.5" width="942" height="786" fill="white" stroke="black" stroke-width="15"/>
<path d="M498 365.5C498 394.529 467.421 420 427 420C386.579 420 356 394.529 356 365.5C356 336.471 386.579 311 427 311C467.421 311 498 336.471 498 365.5Z" fill="white" stroke="black" stroke-width="10"/>
<path d="M150 741.5C150 770.529 119.421 796 79 796C38.579 796 8 770.529 8 741.5C8 712.471 38.579 687 79 687C119.421 687 150 712.471 150 741.5Z" fill="white" stroke="black" stroke-width="10"/>
<path d="M302 741.5C302 770.529 271.421 796 231 796C190.579 796 160 770.529 160 741.5C160 712.471 190.579 687 231 687C271.421 687 302 712.471 302 741.5Z" fill="white" stroke="black" stroke-width="10"/>
<path d="M454 741.5C454 770.529 423.421 796 383 796C342.579 796 312 770.529 312 741.5C312 712.471 342.579 687 383 687C423.421 687 454 712.471 454 741.5Z" fill="white" stroke="black" stroke-width="10"/>
<path d="M606 741.5C606 770.529 575.421 796 535 796C494.579 796 464 770.529 464 741.5C464 712.471 494.579 687 535 687C575.421 687 606 712.471 606 741.5Z" fill="white" stroke="black" stroke-width="10"/>
<path d="M921 292L846 335.301V248.699L921 292ZM853.5 299.5L466 299.5V284.5L853.5 284.5V299.5Z" fill="black"/>
</svg>
