<svg width="957" height="801" viewBox="0 0 957 801" fill="none" xmlns="http://www.w3.org/2000/svg">
<rect x="7.5" y="7.5" width="942" height="786" fill="white" stroke="black" stroke-width="15"/>
<path d="M498 365.5C498 394.529 467.421 420 427 420C386.579 420 356 394.529 356 365.5C356 336.471 386.579 311 427 311C467.421 311 498 336.471 498 365.5Z" fill="black" stroke="black" stroke-width="10"/>
<path d="M147 741.5C147 770.529 116.421 796 76 796C35.579 796 5 770.529 5 741.5C5 712.471 35.579 687 76 687C116.421 687 147 712.471 147 741.5Z" fill="white" stroke="black" stroke-width="10"/>
<path d="M299 741.5C299 770.529 268.421 796 228 796C187.579 796 157 770.529 157 741.5C157 712.471 187.579 687 228 687C268.421 687 299 712.471 299 741.5Z" fill="white" stroke="black" stroke-width="10"/>
<path d="M451 741.5C451 770.529 420.421 796 380 796C339.579 796 309 770.529 309 741.5C309 712.471 339.579 687 380 687C420.421 687 451 712.471 451 741.5Z" fill="white" stroke="black" stroke-width="10"/>
<path d="M603 741.5C603 770.529 572.421 796 532 796C491.579 796 461 770.529 461 741.5C461 712.471 491.579 687 532 687C572.421 687 603 712.471 603 741.5Z" fill="white" stroke="black" stroke-width="10"/>
<path d="M921 292L846 335.301V248.699L921 292ZM853.5 299.5L466 299.5V284.5L853.5 284.5V299.5Z" fill="black"/>
</svg>
