<svg width="957" height="801" viewBox="0 0 957 801" fill="none" xmlns="http://www.w3.org/2000/svg">
<rect x="7.5" y="7.5" width="942" height="786" fill="white" stroke="black" stroke-width="15"/>
<path d="M498 365.5C498 394.529 467.421 420 427 420C386.579 420 356 394.529 356 365.5C356 336.471 386.579 311 427 311C467.421 311 498 336.471 498 365.5Z" fill="white" stroke="black" stroke-width="10"/>
<path d="M155 741.5C155 770.529 124.421 796 84 796C43.579 796 13 770.529 13 741.5C13 712.471 43.579 687 84 687C124.421 687 155 712.471 155 741.5Z" fill="black" stroke="black" stroke-width="10"/>
<path d="M307 741.5C307 770.529 276.421 796 236 796C195.579 796 165 770.529 165 741.5C165 712.471 195.579 687 236 687C276.421 687 307 712.471 307 741.5Z" fill="black" stroke="black" stroke-width="10"/>
<path d="M459 741.5C459 770.529 428.421 796 388 796C347.579 796 317 770.529 317 741.5C317 712.471 347.579 687 388 687C428.421 687 459 712.471 459 741.5Z" fill="black" stroke="black" stroke-width="10"/>
<path d="M611 741.5C611 770.529 580.421 796 540 796C499.579 796 469 770.529 469 741.5C469 712.471 499.579 687 540 687C580.421 687 611 712.471 611 741.5Z" fill="black" stroke="black" stroke-width="10"/>
<path d="M921 292L846 335.301V248.699L921 292ZM853.5 299.5L466 299.5V284.5L853.5 284.5V299.5Z" fill="black"/>
</svg>
