<svg width="124" height="175" viewBox="0 0 124 175" fill="none" xmlns="http://www.w3.org/2000/svg">
<path d="M12.9531 0V47.9456" stroke="black" stroke-width="0.5"/>
<path d="M57.4648 65.585V113.531" stroke="black" stroke-width="0.5"/>
<path d="M51.6641 0V47.9456" stroke="black" stroke-width="0.5"/>
<path d="M9.75586 126.435V174.38" stroke="black" stroke-width="0.5"/>
<path d="M112.158 65.4663V113.412" stroke="black" stroke-width="0.5"/>
<path d="M87.8906 0V47.9456" stroke="black" stroke-width="0.5"/>
<path d="M13.1895 64.9932V113.057" stroke="black" stroke-width="0.5"/>
<path d="M57.3457 126.435V174.38" stroke="black" stroke-width="0.5"/>
<path fill-rule="evenodd" clip-rule="evenodd" d="M12.959 -1.33514e-05C6.34944 0.0125942 0.995255 5.37456 0.995255 11.9871C0.995255 18.5996 6.34944 23.9615 12.959 23.9741L12.959 -1.33514e-05Z" fill="black"/>
<path fill-rule="evenodd" clip-rule="evenodd" d="M57.4688 65.5923C64.0783 65.6049 69.4325 70.9668 69.4325 77.5793C69.4325 84.1918 64.0783 89.5538 57.4688 89.5664V65.5923Z" fill="black"/>
<mask id="path-11-inside-1_596_1343" fill="white">
<path fill-rule="evenodd" clip-rule="evenodd" d="M12.9141 23.9971C19.5236 24.0097 24.8778 29.3716 24.8778 35.9841C24.8778 42.5966 19.5236 47.9586 12.9141 47.9712L12.9141 23.9971Z"/>
</mask>
<path fill-rule="evenodd" clip-rule="evenodd" d="M12.9141 23.9971C19.5236 24.0097 24.8778 29.3716 24.8778 35.9841C24.8778 42.5966 19.5236 47.9586 12.9141 47.9712L12.9141 23.9971Z" fill="white"/>
<path d="M12.9141 23.9971L12.915 23.4971L12.4141 23.4961V23.9971H12.9141ZM12.9141 47.9712H12.4141V48.4721L12.915 48.4712L12.9141 47.9712ZM12.9131 24.4971C19.2469 24.5091 24.3778 29.6474 24.3778 35.9841H25.3778C25.3778 29.0958 19.8003 23.5102 12.915 23.4971L12.9131 24.4971ZM24.3778 35.9841C24.3778 42.3208 19.2469 47.4591 12.9131 47.4712L12.915 48.4712C19.8003 48.4581 25.3778 42.8724 25.3778 35.9841H24.3778ZM13.4141 47.9712L13.4141 23.9971H12.4141L12.4141 47.9712H13.4141Z" fill="black" mask="url(#path-11-inside-1_596_1343)"/>
<mask id="path-13-inside-2_596_1343" fill="white">
<path fill-rule="evenodd" clip-rule="evenodd" d="M57.3887 89.5898C63.9982 89.6024 69.3524 94.9644 69.3524 101.577C69.3524 108.189 63.9982 113.551 57.3887 113.564V89.5898Z"/>
</mask>
<path fill-rule="evenodd" clip-rule="evenodd" d="M57.3887 89.5898C63.9982 89.6024 69.3524 94.9644 69.3524 101.577C69.3524 108.189 63.9982 113.551 57.3887 113.564V89.5898Z" fill="white"/>
<path d="M57.3887 89.5898L57.3896 89.0898L56.8887 89.0889V89.5898H57.3887ZM57.3887 113.564H56.8887V114.065L57.3896 114.064L57.3887 113.564ZM57.3877 90.0898C63.7215 90.1019 68.8524 95.2402 68.8524 101.577H69.8524C69.8524 94.6886 64.2749 89.103 57.3896 89.0898L57.3877 90.0898ZM68.8524 101.577C68.8524 107.914 63.7215 113.052 57.3877 113.064L57.3896 114.064C64.2749 114.051 69.8524 108.465 69.8524 101.577H68.8524ZM57.8887 113.564V89.5898H56.8887V113.564H57.8887Z" fill="black" mask="url(#path-13-inside-2_596_1343)"/>
<mask id="path-15-inside-3_596_1343" fill="white">
<path fill-rule="evenodd" clip-rule="evenodd" d="M87.7051 23.9971C94.3146 24.0097 99.6688 29.3716 99.6688 35.9841C99.6688 42.5966 94.3146 47.9586 87.7051 47.9712V23.9971Z"/>
</mask>
<path fill-rule="evenodd" clip-rule="evenodd" d="M87.7051 23.9971C94.3146 24.0097 99.6688 29.3716 99.6688 35.9841C99.6688 42.5966 94.3146 47.9586 87.7051 47.9712V23.9971Z" fill="white"/>
<path d="M87.7051 23.9971L87.706 23.4971L87.2051 23.4961V23.9971H87.7051ZM87.7051 47.9712H87.2051V48.4721L87.706 48.4712L87.7051 47.9712ZM87.7041 24.4971C94.038 24.5091 99.1688 29.6474 99.1688 35.9841H100.169C100.169 29.0958 94.5913 23.5102 87.706 23.4971L87.7041 24.4971ZM99.1688 35.9841C99.1688 42.3208 94.038 47.4591 87.7041 47.4712L87.706 48.4712C94.5913 48.4581 100.169 42.8724 100.169 35.9841H99.1688ZM88.2051 47.9712V23.9971H87.2051V47.9712H88.2051Z" fill="black" mask="url(#path-15-inside-3_596_1343)"/>
<mask id="path-17-inside-4_596_1343" fill="white">
<path fill-rule="evenodd" clip-rule="evenodd" d="M13.3594 89.0298C6.74983 89.0424 1.39565 94.4043 1.39565 101.017C1.39565 107.629 6.74983 112.991 13.3594 113.004L13.3594 89.0298Z"/>
</mask>
<path fill-rule="evenodd" clip-rule="evenodd" d="M13.3594 89.0298C6.74983 89.0424 1.39565 94.4043 1.39565 101.017C1.39565 107.629 6.74983 112.991 13.3594 113.004L13.3594 89.0298Z" fill="white"/>
<path d="M13.3594 89.0298L13.3584 88.5298L13.8594 88.5288V89.0298H13.3594ZM13.3594 113.004H13.8594V113.505L13.3584 113.504L13.3594 113.004ZM13.3603 89.5298C7.0265 89.5419 1.89565 94.6802 1.89565 101.017H0.895646C0.895646 94.1285 6.47316 88.5429 13.3584 88.5298L13.3603 89.5298ZM1.89565 101.017C1.89565 107.354 7.0265 112.492 13.3603 112.504L13.3584 113.504C6.47316 113.491 0.895646 107.905 0.895646 101.017H1.89565ZM12.8594 113.004L12.8594 89.0298H13.8594L13.8594 113.004H12.8594Z" fill="black" mask="url(#path-17-inside-4_596_1343)"/>
<mask id="path-19-inside-5_596_1343" fill="white">
<path fill-rule="evenodd" clip-rule="evenodd" d="M57.1484 150.383C63.758 150.396 69.1122 155.758 69.1122 162.37C69.1122 168.983 63.758 174.345 57.1484 174.357V150.383Z"/>
</mask>
<path fill-rule="evenodd" clip-rule="evenodd" d="M57.1484 150.383C63.758 150.396 69.1122 155.758 69.1122 162.37C69.1122 168.983 63.758 174.345 57.1484 174.357V150.383Z" fill="white"/>
<path d="M57.1484 150.383L57.1494 149.883L56.6484 149.882V150.383H57.1484ZM57.1484 174.357H56.6484V174.858L57.1494 174.857L57.1484 174.357ZM57.1475 150.883C63.4813 150.895 68.6122 156.034 68.6122 162.37H69.6122C69.6122 155.482 64.0347 149.896 57.1494 149.883L57.1475 150.883ZM68.6122 162.37C68.6122 168.707 63.4813 173.845 57.1475 173.857L57.1494 174.857C64.0347 174.844 69.6122 169.259 69.6122 162.37H68.6122ZM57.6484 174.357V150.383H56.6484V174.357H57.6484Z" fill="black" mask="url(#path-19-inside-5_596_1343)"/>
<mask id="path-21-inside-6_596_1343" fill="white">
<path fill-rule="evenodd" clip-rule="evenodd" d="M51.834 23.9971C45.2244 24.0097 39.8703 29.3716 39.8703 35.9841C39.8703 42.5966 45.2244 47.9586 51.834 47.9712V23.9971Z"/>
</mask>
<path fill-rule="evenodd" clip-rule="evenodd" d="M51.834 23.9971C45.2244 24.0097 39.8703 29.3716 39.8703 35.9841C39.8703 42.5966 45.2244 47.9586 51.834 47.9712V23.9971Z" fill="white"/>
<path d="M51.834 23.9971L51.833 23.4971L52.334 23.4961V23.9971H51.834ZM51.834 47.9712H52.334V48.4721L51.833 48.4712L51.834 47.9712ZM51.8349 24.4971C45.5011 24.5091 40.3703 29.6474 40.3703 35.9841H39.3703C39.3703 29.0958 44.9478 23.5102 51.833 23.4971L51.8349 24.4971ZM40.3703 35.9841C40.3703 42.3208 45.5011 47.4591 51.8349 47.4712L51.833 48.4712C44.9478 48.4581 39.3703 42.8724 39.3703 35.9841H40.3703ZM51.334 47.9712V23.9971H52.334V47.9712H51.334Z" fill="black" mask="url(#path-21-inside-6_596_1343)"/>
<mask id="path-23-inside-7_596_1343" fill="white">
<path fill-rule="evenodd" clip-rule="evenodd" d="M9.71505 150.383C16.3246 150.396 21.6788 155.758 21.6788 162.37C21.6788 168.983 16.3246 174.345 9.71505 174.357L9.71505 150.383Z"/>
</mask>
<path fill-rule="evenodd" clip-rule="evenodd" d="M9.71505 150.383C16.3246 150.396 21.6788 155.758 21.6788 162.37C21.6788 168.983 16.3246 174.345 9.71505 174.357L9.71505 150.383Z" fill="white"/>
<path d="M9.71505 150.383L9.71601 149.883L9.21505 149.882V150.383H9.71505ZM9.71505 174.357H9.21505V174.858L9.71601 174.857L9.71505 174.357ZM9.7141 150.883C16.0479 150.895 21.1788 156.033 21.1788 162.37H22.1788C22.1788 155.482 16.6013 149.896 9.71601 149.883L9.7141 150.883ZM21.1788 162.37C21.1788 168.707 16.0479 173.845 9.7141 173.857L9.71601 174.857C16.6013 174.844 22.1788 169.258 22.1788 162.37H21.1788ZM10.2151 174.357L10.2151 150.383H9.21505L9.21505 174.357H10.2151Z" fill="black" mask="url(#path-23-inside-7_596_1343)"/>
<mask id="path-25-inside-8_596_1343" fill="white">
<path fill-rule="evenodd" clip-rule="evenodd" d="M111.943 89.4302C118.553 89.4428 123.907 94.8047 123.907 101.417C123.907 108.03 118.553 113.392 111.943 113.404V89.4302Z"/>
</mask>
<path fill-rule="evenodd" clip-rule="evenodd" d="M111.943 89.4302C118.553 89.4428 123.907 94.8047 123.907 101.417C123.907 108.03 118.553 113.392 111.943 113.404V89.4302Z" fill="white"/>
<path d="M111.943 89.4302L111.944 88.9302L111.443 88.9292V89.4302H111.943ZM111.943 113.404H111.443V113.905L111.944 113.904L111.943 113.404ZM111.942 89.9302C118.276 89.9422 123.407 95.0806 123.407 101.417H124.407C124.407 94.5289 118.83 88.9433 111.944 88.9302L111.942 89.9302ZM123.407 101.417C123.407 107.754 118.276 112.892 111.942 112.904L111.944 113.904C118.83 113.891 124.407 108.306 124.407 101.417H123.407ZM112.443 113.404V89.4302H111.443V113.404H112.443Z" fill="black" mask="url(#path-25-inside-8_596_1343)"/>
<mask id="path-27-inside-9_596_1343" fill="white">
<path fill-rule="evenodd" clip-rule="evenodd" d="M51.3887 -1.33514e-05C57.9982 0.0125942 63.3524 5.37456 63.3524 11.9871C63.3524 18.5996 57.9982 23.9615 51.3887 23.9741V-1.33514e-05Z"/>
</mask>
<path fill-rule="evenodd" clip-rule="evenodd" d="M51.3887 -1.33514e-05C57.9982 0.0125942 63.3524 5.37456 63.3524 11.9871C63.3524 18.5996 57.9982 23.9615 51.3887 23.9741V-1.33514e-05Z" fill="white"/>
<path d="M51.3887 -1.33514e-05L51.3896 -0.500012L50.8887 -0.500968V-1.33514e-05H51.3887ZM51.3887 23.9741H50.8887V24.4751L51.3896 24.4741L51.3887 23.9741ZM51.3877 0.499986C57.7215 0.512067 62.8524 5.65038 62.8524 11.9871H63.8524C63.8524 5.09873 58.2749 -0.486879 51.3896 -0.500012L51.3877 0.499986ZM62.8524 11.9871C62.8524 18.3237 57.7215 23.462 51.3877 23.4741L51.3896 24.4741C58.2749 24.461 63.8524 18.8754 63.8524 11.9871H62.8524ZM51.8887 23.9741V-1.33514e-05H50.8887V23.9741H51.8887Z" fill="black" mask="url(#path-27-inside-9_596_1343)"/>
<mask id="path-29-inside-10_596_1343" fill="white">
<path fill-rule="evenodd" clip-rule="evenodd" d="M9.55489 126.385C16.1644 126.398 21.5186 131.76 21.5186 138.372C21.5186 144.985 16.1644 150.347 9.55489 150.36L9.55489 126.385Z"/>
</mask>
<path fill-rule="evenodd" clip-rule="evenodd" d="M9.55489 126.385C16.1644 126.398 21.5186 131.76 21.5186 138.372C21.5186 144.985 16.1644 150.347 9.55489 150.36L9.55489 126.385Z" fill="white"/>
<path d="M9.55489 126.385L9.55585 125.885L9.05489 125.884V126.385H9.55489ZM9.55489 150.36H9.05489V150.861L9.55585 150.86L9.55489 150.36ZM9.55394 126.885C15.8878 126.898 21.0186 132.036 21.0186 138.372H22.0186C22.0186 131.484 16.4411 125.899 9.55585 125.885L9.55394 126.885ZM21.0186 138.372C21.0186 144.709 15.8878 149.847 9.55394 149.86L9.55585 150.86C16.4411 150.846 22.0186 145.261 22.0186 138.372H21.0186ZM10.0549 150.36L10.0549 126.385H9.05489L9.05489 150.36H10.0549Z" fill="black" mask="url(#path-29-inside-10_596_1343)"/>
<mask id="path-31-inside-11_596_1343" fill="white">
<path fill-rule="evenodd" clip-rule="evenodd" d="M112.389 65.4325C105.779 65.4451 100.425 70.8071 100.425 77.4196C100.425 84.0321 105.779 89.3941 112.389 89.4067V65.4325Z"/>
</mask>
<path fill-rule="evenodd" clip-rule="evenodd" d="M112.389 65.4325C105.779 65.4451 100.425 70.8071 100.425 77.4196C100.425 84.0321 105.779 89.3941 112.389 89.4067V65.4325Z" fill="white"/>
<path d="M112.389 65.4325L112.388 64.9325L112.889 64.9316V65.4325H112.389ZM112.389 89.4067H112.889V89.9076L112.388 89.9067L112.389 89.4067ZM112.39 65.9325C106.056 65.9446 100.925 71.0829 100.925 77.4196H99.9251C99.9251 70.5313 105.503 64.9457 112.388 64.9325L112.39 65.9325ZM100.925 77.4196C100.925 83.7563 106.056 88.8946 112.39 88.9067L112.388 89.9067C105.503 89.8935 99.9251 84.3079 99.9251 77.4196H100.925ZM111.889 89.4067V65.4325H112.889V89.4067H111.889Z" fill="black" mask="url(#path-31-inside-11_596_1343)"/>
<mask id="path-33-inside-12_596_1343" fill="white">
<path fill-rule="evenodd" clip-rule="evenodd" d="M87.7051 -1.33514e-05C94.3146 0.0125942 99.6688 5.37456 99.6688 11.9871C99.6688 18.5996 94.3146 23.9615 87.7051 23.9741V-1.33514e-05Z"/>
</mask>
<path fill-rule="evenodd" clip-rule="evenodd" d="M87.7051 -1.33514e-05C94.3146 0.0125942 99.6688 5.37456 99.6688 11.9871C99.6688 18.5996 94.3146 23.9615 87.7051 23.9741V-1.33514e-05Z" fill="white"/>
<path d="M87.7051 -1.33514e-05L87.706 -0.500012L87.2051 -0.500968V-1.33514e-05H87.7051ZM87.7051 23.9741H87.2051V24.4751L87.706 24.4741L87.7051 23.9741ZM87.7041 0.499986C94.038 0.512067 99.1688 5.65038 99.1688 11.9871H100.169C100.169 5.09873 94.5913 -0.486879 87.706 -0.500012L87.7041 0.499986ZM99.1688 11.9871C99.1688 18.3237 94.038 23.462 87.7041 23.4741L87.706 24.4741C94.5913 24.461 100.169 18.8754 100.169 11.9871H99.1688ZM88.2051 23.9741V-1.33514e-05H87.2051V23.9741H88.2051Z" fill="black" mask="url(#path-33-inside-12_596_1343)"/>
<mask id="path-35-inside-13_596_1343" fill="white">
<path fill-rule="evenodd" clip-rule="evenodd" d="M12.9141 65.0327C19.5236 65.0453 24.8778 70.4073 24.8778 77.0198C24.8778 83.6323 19.5236 88.9942 12.9141 89.0068L12.9141 65.0327Z"/>
</mask>
<path fill-rule="evenodd" clip-rule="evenodd" d="M12.9141 65.0327C19.5236 65.0453 24.8778 70.4073 24.8778 77.0198C24.8778 83.6323 19.5236 88.9942 12.9141 89.0068L12.9141 65.0327Z" fill="white"/>
<path d="M12.9141 65.0327L12.915 64.5327L12.4141 64.5317V65.0327H12.9141ZM12.9141 89.0068H12.4141V89.5078L12.915 89.5068L12.9141 89.0068ZM12.9131 65.5327C19.2469 65.5448 24.3778 70.6831 24.3778 77.0198H25.3778C25.3778 70.1314 19.8003 64.5458 12.915 64.5327L12.9131 65.5327ZM24.3778 77.0198C24.3778 83.3564 19.2469 88.4948 12.9131 88.5068L12.915 89.5068C19.8003 89.4937 25.3778 83.9081 25.3778 77.0198H24.3778ZM13.4141 89.0068L13.4141 65.0327H12.4141L12.4141 89.0068H13.4141Z" fill="black" mask="url(#path-35-inside-13_596_1343)"/>
<mask id="path-37-inside-14_596_1343" fill="white">
<path fill-rule="evenodd" clip-rule="evenodd" d="M57.5938 126.386C50.9842 126.398 45.63 131.76 45.63 138.373C45.63 144.985 50.9842 150.347 57.5938 150.36V126.386Z"/>
</mask>
<path fill-rule="evenodd" clip-rule="evenodd" d="M57.5938 126.386C50.9842 126.398 45.63 131.76 45.63 138.373C45.63 144.985 50.9842 150.347 57.5938 150.36V126.386Z" fill="white"/>
<path d="M57.5938 126.386L57.5928 125.886L58.0938 125.885V126.386H57.5938ZM57.5938 150.36H58.0938V150.861L57.5928 150.86L57.5938 150.36ZM57.5947 126.886C51.2609 126.898 46.13 132.036 46.13 138.373H45.13C45.13 131.484 50.7075 125.899 57.5928 125.886L57.5947 126.886ZM46.13 138.373C46.13 144.709 51.2609 149.848 57.5947 149.86L57.5928 150.86C50.7075 150.847 45.13 145.261 45.13 138.373H46.13ZM57.0938 150.36V126.386H58.0938V150.36H57.0938Z" fill="black" mask="url(#path-37-inside-14_596_1343)"/>
<path d="M90.3767 0.591797L87.8906 2.72271" stroke="black" stroke-width="0.5"/>
<path d="M15.6755 65.585L13.1895 67.7159" stroke="black" stroke-width="0.5"/>
<path d="M54.8596 126.908L57.3457 129.158" stroke="black" stroke-width="0.5"/>
<path d="M14.9652 65.585L13.1895 67.2423" stroke="black" stroke-width="0.5"/>
<path d="M55.5699 126.908L57.3457 128.566" stroke="black" stroke-width="0.5"/>
<path d="M14.4917 65.4663L13.1895 66.7685" stroke="black" stroke-width="0.5"/>
<path d="M56.0435 126.79L57.3457 128.092" stroke="black" stroke-width="0.5"/>
<path d="M91.087 0.591797L87.8906 3.43302" stroke="black" stroke-width="0.5"/>
<path d="M16.2674 65.585L13.1895 68.4262" stroke="black" stroke-width="0.5"/>
<path d="M54.2677 126.908L57.3457 129.868" stroke="black" stroke-width="0.5"/>
<path d="M91.5605 0.710449L87.8906 4.02521" stroke="black" stroke-width="0.5"/>
<path d="M16.741 65.7031L13.1895 69.0179" stroke="black" stroke-width="0.5"/>
<path d="M53.7942 127.145L57.3457 130.341" stroke="black" stroke-width="0.5"/>
<path d="M91.9157 0.947266L87.8906 4.73556" stroke="black" stroke-width="0.5"/>
<path d="M17.0954 65.9399L13.0703 69.7282" stroke="black" stroke-width="0.5"/>
<path d="M53.4398 127.381L57.4648 131.051" stroke="black" stroke-width="0.5"/>
<path d="M92.1525 1.18408L87.8906 5.09076" stroke="black" stroke-width="0.5"/>
<path d="M17.3329 66.1768L13.1895 70.2018" stroke="black" stroke-width="0.5"/>
<path d="M53.2023 127.618L57.3457 131.525" stroke="black" stroke-width="0.5"/>
<path d="M92.5076 1.30225L87.8906 5.80085" stroke="black" stroke-width="0.5"/>
<path d="M17.6881 66.4136L13.1895 70.7938" stroke="black" stroke-width="0.5"/>
<path d="M52.8471 127.737L57.3457 132.117" stroke="black" stroke-width="0.5"/>
<path d="M92.8628 1.53906L87.8906 6.39282" stroke="black" stroke-width="0.5"/>
<path d="M18.0432 66.5317L13.1895 71.3855" stroke="black" stroke-width="0.5"/>
<path d="M52.4919 127.855L57.3457 132.827" stroke="black" stroke-width="0.5"/>
<path d="M93.0995 1.65723L87.8906 6.86614" stroke="black" stroke-width="0.5"/>
<path d="M18.28 66.7686L13.1895 71.8591" stroke="black" stroke-width="0.5"/>
<path d="M52.2552 128.092L57.3457 133.301" stroke="black" stroke-width="0.5"/>
<path d="M93.3363 1.89404L87.8906 7.33972" stroke="black" stroke-width="0.5"/>
<path d="M18.6351 66.8872L13.1895 72.3329" stroke="black" stroke-width="0.5"/>
<path d="M51.9 128.21L57.3457 133.774" stroke="black" stroke-width="0.5"/>
<path d="M93.6915 2.0127L87.8906 7.93191" stroke="black" stroke-width="0.5"/>
<path d="M18.8719 67.0054L13.1895 72.9246" stroke="black" stroke-width="0.5"/>
<path d="M51.5449 128.329L57.3457 134.248" stroke="black" stroke-width="0.5"/>
<path d="M93.9282 2.13086L87.8906 8.52361" stroke="black" stroke-width="0.5"/>
<path d="M19.1087 67.2422L13.1895 73.5166" stroke="black" stroke-width="0.5"/>
<path d="M51.3081 128.565L57.3457 134.84" stroke="black" stroke-width="0.5"/>
<path d="M94.4241 2.15973L87.9492 9.04338" stroke="black" stroke-width="0.5"/>
<path d="M19.633 67.1924L13.1582 74.0761" stroke="black" stroke-width="0.5"/>
<path d="M50.8748 128.545L57.3496 135.429" stroke="black" stroke-width="0.5"/>
<path d="M94.4018 2.60449L87.8906 9.70755" stroke="black" stroke-width="0.5"/>
<path d="M19.5822 67.5977L13.1895 74.7007" stroke="black" stroke-width="0.5"/>
<path d="M50.8346 128.92L57.3457 136.023" stroke="black" stroke-width="0.5"/>
<path d="M94.8753 2.60449L87.8906 10.1811" stroke="black" stroke-width="0.5"/>
<path d="M20.055 67.7158L13.0703 75.2924" stroke="black" stroke-width="0.5"/>
<path d="M50.4802 129.039L57.4648 136.616" stroke="black" stroke-width="0.5"/>
<path d="M95.1113 2.72266L87.7715 10.7728" stroke="black" stroke-width="0.5"/>
<path d="M20.293 67.7158L12.9531 75.8843" stroke="black" stroke-width="0.5"/>
<path d="M50.2434 129.157L57.4648 137.207" stroke="black" stroke-width="0.5"/>
<path d="M95.2305 3.07812L87.8906 11.2466" stroke="black" stroke-width="0.5"/>
<path d="M20.4101 68.0708L13.0703 76.3577" stroke="black" stroke-width="0.5"/>
<path d="M50.125 129.394L57.4648 137.681" stroke="black" stroke-width="0.5"/>
<path d="M95.4672 3.19629L87.8906 11.72" stroke="black" stroke-width="0.5"/>
<path d="M20.6469 68.1895L13.0703 76.7131" stroke="black" stroke-width="0.5"/>
<path d="M49.8882 129.631L57.4648 138.036" stroke="black" stroke-width="0.5"/>
<path d="M95.5856 3.43311L87.8906 12.1935" stroke="black" stroke-width="0.5"/>
<path d="M20.8837 68.4258L13.0703 77.1862" stroke="black" stroke-width="0.5"/>
<path d="M49.6515 129.868L57.4648 138.51" stroke="black" stroke-width="0.5"/>
<path d="M95.8216 3.55127L87.7715 12.6669" stroke="black" stroke-width="0.5"/>
<path d="M21.0033 68.6631L12.9531 77.7787" stroke="black" stroke-width="0.5"/>
<path d="M49.5331 129.986L57.4648 139.101" stroke="black" stroke-width="0.5"/>
<path d="M95.9408 3.78809L87.8906 12.9037" stroke="black" stroke-width="0.5"/>
<path d="M21.1212 68.8994L13.1895 78.015" stroke="black" stroke-width="0.5"/>
<path d="M49.2956 130.223L57.3457 139.338" stroke="black" stroke-width="0.5"/>
<path d="M96.1775 4.0249L87.8906 13.4956" stroke="black" stroke-width="0.5"/>
<path d="M21.358 69.0181L13.1895 78.4888" stroke="black" stroke-width="0.5"/>
<path d="M49.0588 130.341L57.3457 139.812" stroke="black" stroke-width="0.5"/>
<path d="M96.4143 4.26172L87.8906 14.0876" stroke="black" stroke-width="0.5"/>
<path d="M21.594 69.373L13.0703 79.0806" stroke="black" stroke-width="0.5"/>
<path d="M48.8228 130.696L57.4648 140.522" stroke="black" stroke-width="0.5"/>
<path d="M96.6511 4.6167L87.8906 14.4426" stroke="black" stroke-width="0.5"/>
<path d="M21.8315 69.7285L13.1895 79.5544" stroke="black" stroke-width="0.5"/>
<path d="M48.5853 131.051L57.3457 140.877" stroke="black" stroke-width="0.5"/>
<path d="M97.1246 4.73535L87.8906 15.1532" stroke="black" stroke-width="0.5"/>
<path d="M22.305 69.7285L13.1895 80.1463" stroke="black" stroke-width="0.5"/>
<path d="M48.2301 131.051L57.3457 141.469" stroke="black" stroke-width="0.5"/>
<path d="M97.1246 5.09033L87.8906 15.7449" stroke="black" stroke-width="0.5"/>
<path d="M22.305 70.2017L13.1895 80.7379" stroke="black" stroke-width="0.5"/>
<path d="M48.1117 131.525L57.3457 142.18" stroke="black" stroke-width="0.5"/>
<path d="M97.3614 5.32715L87.8906 16.2185" stroke="black" stroke-width="0.5"/>
<path d="M22.5418 70.439L13.1895 81.2119" stroke="black" stroke-width="0.5"/>
<path d="M47.9933 131.762L57.3457 142.653" stroke="black" stroke-width="0.5"/>
<path d="M97.5981 5.56396L87.8906 16.9289" stroke="black" stroke-width="0.5"/>
<path d="M22.7778 70.6753L13.0703 81.9218" stroke="black" stroke-width="0.5"/>
<path d="M47.7573 131.999L57.4648 143.245" stroke="black" stroke-width="0.5"/>
<path d="M97.8349 5.91943L87.8906 17.4027" stroke="black" stroke-width="0.5"/>
<path d="M23.0146 70.9121L13.0703 82.5138" stroke="black" stroke-width="0.5"/>
<path d="M47.5206 132.354L57.4648 143.837" stroke="black" stroke-width="0.5"/>
<path d="M97.9533 6.15625L87.8906 17.9947" stroke="black" stroke-width="0.5"/>
<path d="M23.133 71.1489L13.0703 82.9874" stroke="black" stroke-width="0.5"/>
<path d="M47.4022 132.59L57.4648 144.429" stroke="black" stroke-width="0.5"/>
<path d="M98.0717 6.51123L87.8906 18.468" stroke="black" stroke-width="0.5"/>
<path d="M23.3697 71.5044L13.0703 83.4612" stroke="black" stroke-width="0.5"/>
<path d="M47.1654 132.827L57.4648 144.902" stroke="black" stroke-width="0.5"/>
<path d="M98.3084 6.74805L87.8906 18.9416" stroke="black" stroke-width="0.5"/>
<path d="M23.4881 71.8594L13.0703 83.9346" stroke="black" stroke-width="0.5"/>
<path d="M47.047 133.183L57.4648 145.376" stroke="black" stroke-width="0.5"/>
<path d="M98.4268 7.10303L87.8906 19.415" stroke="black" stroke-width="0.5"/>
<path d="M23.6073 72.0962L13.1895 84.5265" stroke="black" stroke-width="0.5"/>
<path d="M46.9279 133.538L57.3457 145.85" stroke="black" stroke-width="0.5"/>
<path d="M98.6642 7.35926L87.9617 20.0118" stroke="black" stroke-width="0.5"/>
<path d="M23.8732 72.392L13.1707 85.0446" stroke="black" stroke-width="0.5"/>
<path d="M46.6346 133.745L57.3371 146.397" stroke="black" stroke-width="0.5"/>
<path d="M98.6646 7.91915L87.8999 20.8117" stroke="black" stroke-width="0.5"/>
<path d="M23.8736 72.9514L13.1089 85.8439" stroke="black" stroke-width="0.5"/>
<path d="M46.6361 134.305L57.4009 147.197" stroke="black" stroke-width="0.5"/>
<path d="M98.9849 8.15923L87.9808 21.3717" stroke="black" stroke-width="0.5"/>
<path d="M24.1939 73.1915L13.1898 86.4039" stroke="black" stroke-width="0.5"/>
<path d="M46.3139 134.544L57.318 147.757" stroke="black" stroke-width="0.5"/>
<path d="M98.9048 8.87896L87.9007 22.0914" stroke="black" stroke-width="0.5"/>
<path d="M24.1138 73.9117L13.1097 87.1241" stroke="black" stroke-width="0.5"/>
<path d="M46.3959 135.265L57.4 148.477" stroke="black" stroke-width="0.5"/>
<path d="M99.1442 9.359L87.981 22.6514" stroke="black" stroke-width="0.5"/>
<path d="M24.3532 74.3912L13.19 87.6836" stroke="black" stroke-width="0.5"/>
<path d="M46.1546 135.744L57.3178 149.037" stroke="black" stroke-width="0.5"/>
<path d="M99.3842 9.9189L87.9812 23.2913" stroke="black" stroke-width="0.5"/>
<path d="M24.5932 74.9511L13.1902 88.3235" stroke="black" stroke-width="0.5"/>
<path d="M45.9146 136.304L57.3176 149.677" stroke="black" stroke-width="0.5"/>
<path d="M99.5444 10.3989L88.1414 23.7713" stroke="black" stroke-width="0.5"/>
<path d="M24.7534 75.4316L13.3504 88.804" stroke="black" stroke-width="0.5"/>
<path d="M45.7545 136.785L57.1574 150.157" stroke="black" stroke-width="0.5"/>
<path d="M99.543 11.2789L88.7445 23.7574" stroke="black" stroke-width="0.5"/>
<path d="M24.752 76.3112L13.9535 88.7897" stroke="black" stroke-width="0.5"/>
<path d="M45.7558 137.664L56.5544 150.143" stroke="black" stroke-width="0.5"/>
<path d="M99.5436 11.9985L89.4183 23.7571" stroke="black" stroke-width="0.5"/>
<path d="M24.7526 77.0312L14.6273 88.7899" stroke="black" stroke-width="0.5"/>
<path d="M45.7552 138.384L55.8805 150.143" stroke="black" stroke-width="0.5"/>
<path d="M99.5441 12.7183L90.3452 23.437" stroke="black" stroke-width="0.5"/>
<path d="M24.7531 77.751L15.5542 88.4698" stroke="black" stroke-width="0.5"/>
<path d="M45.7567 139.104L54.9556 149.823" stroke="black" stroke-width="0.5"/>
<path d="M99.3844 13.4386L90.9351 23.4374" stroke="black" stroke-width="0.5"/>
<path d="M24.5934 78.4713L16.1441 88.4702" stroke="black" stroke-width="0.5"/>
<path d="M45.9163 139.824L54.3657 149.823" stroke="black" stroke-width="0.5"/>
<path d="M99.1443 14.3985L91.9449 22.9576" stroke="black" stroke-width="0.5"/>
<path d="M24.3533 79.4307L17.1539 87.9899" stroke="black" stroke-width="0.5"/>
<path d="M46.1545 140.784L53.354 149.343" stroke="black" stroke-width="0.5"/>
<path d="M98.9841 15.1184L92.7448 22.6375" stroke="black" stroke-width="0.5"/>
<path d="M24.1931 80.1511L17.9538 87.6703" stroke="black" stroke-width="0.5"/>
<path d="M46.3148 141.504L52.554 149.023" stroke="black" stroke-width="0.5"/>
<path d="M98.9038 15.7584L93.8646 22.0777" stroke="black" stroke-width="0.5"/>
<path d="M24.1128 80.7911L19.0736 87.1104" stroke="black" stroke-width="0.5"/>
<path d="M46.395 142.144L51.4342 148.463" stroke="black" stroke-width="0.5"/>
<path d="M113.231 133.674C115.343 133.674 117.05 134.271 118.351 135.466C119.653 136.66 120.303 138.26 120.303 140.266C120.303 142.506 119.61 144.17 118.223 145.258C116.837 146.324 114.959 146.858 112.591 146.858L112.495 149.898H109.967L109.839 144.842H110.767C112.879 144.842 114.533 144.522 115.727 143.882C116.922 143.242 117.519 142.036 117.519 140.266C117.519 138.986 117.135 137.972 116.367 137.226C115.599 136.479 114.565 136.106 113.263 136.106C111.941 136.106 110.895 136.468 110.127 137.194C109.381 137.898 109.007 138.868 109.007 140.106H106.255C106.255 138.826 106.543 137.706 107.119 136.746C107.695 135.764 108.506 135.007 109.551 134.474C110.618 133.94 111.845 133.674 113.231 133.674ZM111.215 156.458C110.661 156.458 110.191 156.266 109.807 155.882C109.423 155.498 109.231 155.028 109.231 154.474C109.231 153.919 109.423 153.45 109.807 153.066C110.191 152.682 110.661 152.49 111.215 152.49C111.749 152.49 112.197 152.682 112.559 153.066C112.943 153.45 113.135 153.919 113.135 154.474C113.135 155.028 112.943 155.498 112.559 155.882C112.197 156.266 111.749 156.458 111.215 156.458Z" fill="black"/>
</svg>
