<svg width="71" height="98" viewBox="0 0 71 98" fill="none" xmlns="http://www.w3.org/2000/svg">
<path d="M7.71875 0V26.9449" stroke="black" stroke-width="0.4"/>
<path d="M32.7324 36.8579V63.8029" stroke="black" stroke-width="0.4"/>
<path d="M29.4746 0V26.9449" stroke="black" stroke-width="0.4"/>
<path d="M5.91992 71.0542V97.9991" stroke="black" stroke-width="0.4"/>
<path d="M63.4707 36.792V63.7369" stroke="black" stroke-width="0.4"/>
<path d="M49.832 0V26.9449" stroke="black" stroke-width="0.4"/>
<path d="M7.85352 36.5259V63.5374" stroke="black" stroke-width="0.4"/>
<path d="M32.666 71.0542V97.9991" stroke="black" stroke-width="0.4"/>
<path fill-rule="evenodd" clip-rule="evenodd" d="M7.71875 -0.000556946C4.0039 0.00610828 0.994482 3.01964 0.994482 6.73605C0.994482 10.4525 4.0039 13.466 7.71875 13.4727L7.71875 -0.000556946Z" fill="black"/>
<path fill-rule="evenodd" clip-rule="evenodd" d="M32.7324 36.8622C36.4473 36.8689 39.4567 39.8824 39.4567 43.5988C39.4567 47.3153 36.4473 50.3288 32.7324 50.3354V36.8622Z" fill="black"/>
<mask id="path-11-inside-1_596_1343" fill="white">
<path fill-rule="evenodd" clip-rule="evenodd" d="M7.6953 13.4863C11.4101 13.4929 14.4196 16.5065 14.4196 20.2229C14.4196 23.9393 11.4101 26.9528 7.6953 26.9595L7.6953 13.4863Z"/>
</mask>
<path fill-rule="evenodd" clip-rule="evenodd" d="M7.6953 13.4863C11.4101 13.4929 14.4196 16.5065 14.4196 20.2229C14.4196 23.9393 11.4101 26.9528 7.6953 26.9595L7.6953 13.4863Z" fill="white"/>
<path d="M7.6953 13.4863L7.69601 13.0863L7.2953 13.0856V13.4863H7.6953ZM7.6953 26.9595H7.2953V27.3602L7.69601 27.3595L7.6953 26.9595ZM7.69458 13.8863C11.1888 13.8925 14.0196 16.7271 14.0196 20.2229H14.8196C14.8196 16.2858 11.6315 13.0933 7.69601 13.0863L7.69458 13.8863ZM14.0196 20.2229C14.0196 23.7186 11.1888 26.5532 7.69458 26.5595L7.69601 27.3595C11.6315 27.3524 14.8196 24.16 14.8196 20.2229H14.0196ZM8.0953 26.9595V13.4863H7.2953L7.2953 26.9595H8.0953Z" fill="black" mask="url(#path-11-inside-1_596_1343)"/>
<mask id="path-13-inside-2_596_1343" fill="white">
<path fill-rule="evenodd" clip-rule="evenodd" d="M32.6895 50.3491C36.4043 50.3557 39.4137 53.3692 39.4137 57.0857C39.4137 60.8021 36.4043 63.8156 32.6895 63.8223V50.3491Z"/>
</mask>
<path fill-rule="evenodd" clip-rule="evenodd" d="M32.6895 50.3491C36.4043 50.3557 39.4137 53.3692 39.4137 57.0857C39.4137 60.8021 36.4043 63.8156 32.6895 63.8223V50.3491Z" fill="white"/>
<path d="M32.6895 50.3491L32.6902 49.9491L32.2895 49.9483V50.3491H32.6895ZM32.6895 63.8223H32.2895V64.223L32.6902 64.2223L32.6895 63.8223ZM32.6887 50.7491C36.183 50.7553 39.0137 53.5899 39.0137 57.0857H39.8137C39.8137 53.1486 36.6256 49.9561 32.6902 49.9491L32.6887 50.7491ZM39.0137 57.0857C39.0137 60.5814 36.183 63.416 32.6887 63.4223L32.6902 64.2223C36.6256 64.2152 39.8137 61.0227 39.8137 57.0857H39.0137ZM33.0895 63.8223V50.3491H32.2895V63.8223H33.0895Z" fill="black" mask="url(#path-13-inside-2_596_1343)"/>
<mask id="path-15-inside-3_596_1343" fill="white">
<path fill-rule="evenodd" clip-rule="evenodd" d="M49.7285 13.4863C53.4434 13.4929 56.4528 16.5065 56.4528 20.2229C56.4528 23.9393 53.4434 26.9528 49.7285 26.9595V13.4863Z"/>
</mask>
<path fill-rule="evenodd" clip-rule="evenodd" d="M49.7285 13.4863C53.4434 13.4929 56.4528 16.5065 56.4528 20.2229C56.4528 23.9393 53.4434 26.9528 49.7285 26.9595V13.4863Z" fill="white"/>
<path d="M49.7285 13.4863L49.7292 13.0863L49.3285 13.0855V13.4863H49.7285ZM49.7285 26.9595H49.3285V27.3602L49.7292 27.3595L49.7285 26.9595ZM49.7278 13.8863C53.2221 13.8925 56.0528 16.7271 56.0528 20.2229H56.8528C56.8528 16.2858 53.6647 13.0933 49.7292 13.0863L49.7278 13.8863ZM56.0528 20.2229C56.0528 23.7186 53.2221 26.5532 49.7278 26.5595L49.7292 27.3595C53.6647 27.3524 56.8528 24.16 56.8528 20.2229H56.0528ZM50.1285 26.9595V13.4863H49.3285V26.9595H50.1285Z" fill="black" mask="url(#path-15-inside-3_596_1343)"/>
<mask id="path-17-inside-4_596_1343" fill="white">
<path fill-rule="evenodd" clip-rule="evenodd" d="M7.94531 50.0351C4.23046 50.0418 1.22104 53.0553 1.22104 56.7717C1.22104 60.4881 4.23046 63.5016 7.94531 63.5083L7.94531 50.0351Z"/>
</mask>
<path fill-rule="evenodd" clip-rule="evenodd" d="M7.94531 50.0351C4.23046 50.0418 1.22104 53.0553 1.22104 56.7717C1.22104 60.4881 4.23046 63.5016 7.94531 63.5083L7.94531 50.0351Z" fill="white"/>
<path d="M7.94531 50.0351L7.94459 49.6351L8.34531 49.6344V50.0351H7.94531ZM7.94531 63.5083H8.34531V63.909L7.94459 63.9083L7.94531 63.5083ZM7.94603 50.4351C4.45177 50.4414 1.62104 53.276 1.62104 56.7717H0.821044C0.821044 52.8346 4.00915 49.6421 7.94459 49.6351L7.94603 50.4351ZM1.62104 56.7717C1.62104 60.2674 4.45177 63.102 7.94603 63.1083L7.94459 63.9083C4.00915 63.9012 0.821044 60.7088 0.821044 56.7717H1.62104ZM7.54531 63.5083L7.54531 50.0351H8.34531V63.5083H7.54531Z" fill="black" mask="url(#path-17-inside-4_596_1343)"/>
<mask id="path-19-inside-5_596_1343" fill="white">
<path fill-rule="evenodd" clip-rule="evenodd" d="M32.5566 84.5141C36.2715 84.5208 39.2809 87.5343 39.2809 91.2507C39.2809 94.9671 36.2715 97.9806 32.5566 97.9873V84.5141Z"/>
</mask>
<path fill-rule="evenodd" clip-rule="evenodd" d="M32.5566 84.5141C36.2715 84.5208 39.2809 87.5343 39.2809 91.2507C39.2809 94.9671 36.2715 97.9806 32.5566 97.9873V84.5141Z" fill="white"/>
<path d="M32.5566 84.5141L32.5574 84.1141L32.1566 84.1134V84.5141H32.5566ZM32.5566 97.9873H32.1566V98.388L32.5574 98.3873L32.5566 97.9873ZM32.5559 84.9141C36.0502 84.9204 38.8809 87.755 38.8809 91.2507H39.6809C39.6809 87.3136 36.4928 84.1212 32.5574 84.1141L32.5559 84.9141ZM38.8809 91.2507C38.8809 94.7464 36.0502 97.581 32.5559 97.5873L32.5574 98.3873C36.4928 98.3802 39.6809 95.1878 39.6809 91.2507H38.8809ZM32.9566 97.9873V84.5141H32.1566V97.9873H32.9566Z" fill="black" mask="url(#path-19-inside-5_596_1343)"/>
<mask id="path-21-inside-6_596_1343" fill="white">
<path fill-rule="evenodd" clip-rule="evenodd" d="M29.5703 13.4863C25.8555 13.4929 22.846 16.5065 22.846 20.2229C22.846 23.9393 25.8555 26.9528 29.5703 26.9595V13.4863Z"/>
</mask>
<path fill-rule="evenodd" clip-rule="evenodd" d="M29.5703 13.4863C25.8555 13.4929 22.846 16.5065 22.846 20.2229C22.846 23.9393 25.8555 26.9528 29.5703 26.9595V13.4863Z" fill="white"/>
<path d="M29.5703 13.4863L29.5696 13.0863L29.9703 13.0855V13.4863H29.5703ZM29.5703 26.9595H29.9703V27.3602L29.5696 27.3595L29.5703 26.9595ZM29.571 13.8863C26.0768 13.8925 23.246 16.7271 23.246 20.2229H22.446C22.446 16.2858 25.6341 13.0933 29.5696 13.0863L29.571 13.8863ZM23.246 20.2229C23.246 23.7186 26.0768 26.5532 29.571 26.5595L29.5696 27.3595C25.6341 27.3524 22.446 24.16 22.446 20.2229H23.246ZM29.1703 26.9595V13.4863H29.9703V26.9595H29.1703Z" fill="black" mask="url(#path-21-inside-6_596_1343)"/>
<mask id="path-23-inside-7_596_1343" fill="white">
<path fill-rule="evenodd" clip-rule="evenodd" d="M5.89648 84.5141C9.61134 84.5208 12.6208 87.5343 12.6208 91.2507C12.6208 94.9671 9.61134 97.9806 5.89648 97.9873L5.89648 84.5141Z"/>
</mask>
<path fill-rule="evenodd" clip-rule="evenodd" d="M5.89648 84.5141C9.61134 84.5208 12.6208 87.5343 12.6208 91.2507C12.6208 94.9671 9.61134 97.9806 5.89648 97.9873L5.89648 84.5141Z" fill="white"/>
<path d="M5.89648 84.5141L5.8972 84.1141L5.49648 84.1134V84.5141H5.89648ZM5.89648 97.9873H5.49648V98.388L5.8972 98.3873L5.89648 97.9873ZM5.89577 84.9141C9.39003 84.9204 12.2208 87.755 12.2208 91.2507H13.0208C13.0208 87.3136 9.83265 84.1212 5.8972 84.1141L5.89577 84.9141ZM12.2208 91.2507C12.2208 94.7464 9.39003 97.581 5.89577 97.5873L5.8972 98.3873C9.83265 98.3802 13.0208 95.1878 13.0208 91.2507H12.2208ZM6.29648 97.9873L6.29648 84.5141H5.49648L5.49648 97.9873H6.29648Z" fill="black" mask="url(#path-23-inside-7_596_1343)"/>
<mask id="path-25-inside-8_596_1343" fill="white">
<path fill-rule="evenodd" clip-rule="evenodd" d="M63.3496 50.2577C67.0645 50.2644 70.0739 53.2779 70.0739 56.9943C70.0739 60.7108 67.0645 63.7243 63.3496 63.731V50.2577Z"/>
</mask>
<path fill-rule="evenodd" clip-rule="evenodd" d="M63.3496 50.2577C67.0645 50.2644 70.0739 53.2779 70.0739 56.9943C70.0739 60.7108 67.0645 63.7243 63.3496 63.731V50.2577Z" fill="white"/>
<path d="M63.3496 50.2577L63.3503 49.8577L62.9496 49.857V50.2577H63.3496ZM63.3496 63.731H62.9496V64.1317L63.3503 64.131L63.3496 63.731ZM63.3489 50.6577C66.8432 50.664 69.6739 53.4986 69.6739 56.9943H70.4739C70.4739 53.0573 67.2858 49.8648 63.3503 49.8577L63.3489 50.6577ZM69.6739 56.9943C69.6739 60.4901 66.8432 63.3247 63.3489 63.331L63.3503 64.131C67.2858 64.1239 70.4739 60.9314 70.4739 56.9943H69.6739ZM63.7496 63.731V50.2577H62.9496V63.731H63.7496Z" fill="black" mask="url(#path-25-inside-8_596_1343)"/>
<mask id="path-27-inside-9_596_1343" fill="white">
<path fill-rule="evenodd" clip-rule="evenodd" d="M29.3165 -0.000660896C33.0313 0.00600433 36.0408 3.01953 36.0408 6.73595C36.0408 10.4524 33.0313 13.4659 29.3165 13.4726V-0.000660896Z"/>
</mask>
<path fill-rule="evenodd" clip-rule="evenodd" d="M29.3165 -0.000660896C33.0313 0.00600433 36.0408 3.01953 36.0408 6.73595C36.0408 10.4524 33.0313 13.4659 29.3165 13.4726V-0.000660896Z" fill="white"/>
<path d="M29.3165 -0.000660896L29.3172 -0.40066L28.9165 -0.401379V-0.000660896H29.3165ZM29.3165 13.4726H28.9165V13.8733L29.3172 13.8726L29.3165 13.4726ZM29.3158 0.399338C32.81 0.405608 35.6408 3.2402 35.6408 6.73595H36.4408C36.4408 2.79886 33.2527 -0.393599 29.3172 -0.40066L29.3158 0.399338ZM35.6408 6.73595C35.6408 10.2317 32.81 13.0663 29.3158 13.0726L29.3172 13.8726C33.2527 13.8655 36.4408 10.673 36.4408 6.73595H35.6408ZM29.7165 13.4726V-0.000660896H28.9165V13.4726H29.7165Z" fill="black" mask="url(#path-27-inside-9_596_1343)"/>
<mask id="path-29-inside-10_596_1343" fill="white">
<path fill-rule="evenodd" clip-rule="evenodd" d="M5.80859 71.0273C9.52345 71.0339 12.5329 74.0475 12.5329 77.7639C12.5329 81.4803 9.52345 84.4938 5.80859 84.5005L5.80859 71.0273Z"/>
</mask>
<path fill-rule="evenodd" clip-rule="evenodd" d="M5.80859 71.0273C9.52345 71.0339 12.5329 74.0475 12.5329 77.7639C12.5329 81.4803 9.52345 84.4938 5.80859 84.5005L5.80859 71.0273Z" fill="white"/>
<path d="M5.80859 71.0273L5.80931 70.6273L5.40859 70.6266V71.0273H5.80859ZM5.80859 84.5005H5.40859V84.9012L5.80931 84.9005L5.80859 84.5005ZM5.80788 71.4273C9.30214 71.4335 12.1329 74.2681 12.1329 77.7639H12.9329C12.9329 73.8268 9.74476 70.6343 5.80931 70.6273L5.80788 71.4273ZM12.1329 77.7639C12.1329 81.2596 9.30214 84.0942 5.80788 84.1005L5.80931 84.9005C9.74476 84.8934 12.9329 81.701 12.9329 77.7639H12.1329ZM6.20859 84.5005L6.20859 71.0273H5.40859L5.40859 84.5005H6.20859Z" fill="black" mask="url(#path-29-inside-10_596_1343)"/>
<mask id="path-31-inside-11_596_1343" fill="white">
<path fill-rule="evenodd" clip-rule="evenodd" d="M63.6016 36.7724C59.8867 36.7791 56.8773 39.7926 56.8773 43.509C56.8773 47.2254 59.8867 50.2389 63.6016 50.2456V36.7724Z"/>
</mask>
<path fill-rule="evenodd" clip-rule="evenodd" d="M63.6016 36.7724C59.8867 36.7791 56.8773 39.7926 56.8773 43.509C56.8773 47.2254 59.8867 50.2389 63.6016 50.2456V36.7724Z" fill="white"/>
<path d="M63.6016 36.7724L63.6008 36.3724L64.0016 36.3717V36.7724H63.6016ZM63.6016 50.2456H64.0016V50.6463L63.6008 50.6456L63.6016 50.2456ZM63.6023 37.1724C60.108 37.1787 57.2773 40.0133 57.2773 43.509H56.4773C56.4773 39.5719 59.6654 36.3795 63.6008 36.3724L63.6023 37.1724ZM57.2773 43.509C57.2773 47.0047 60.108 49.8393 63.6023 49.8456L63.6008 50.6456C59.6654 50.6385 56.4773 47.4461 56.4773 43.509H57.2773ZM63.2016 50.2456V36.7724H64.0016V50.2456H63.2016Z" fill="black" mask="url(#path-31-inside-11_596_1343)"/>
<mask id="path-33-inside-12_596_1343" fill="white">
<path fill-rule="evenodd" clip-rule="evenodd" d="M49.7285 -0.000556946C53.4434 0.00610828 56.4528 3.01964 56.4528 6.73605C56.4528 10.4525 53.4434 13.466 49.7285 13.4727V-0.000556946Z"/>
</mask>
<path fill-rule="evenodd" clip-rule="evenodd" d="M49.7285 -0.000556946C53.4434 0.00610828 56.4528 3.01964 56.4528 6.73605C56.4528 10.4525 53.4434 13.466 49.7285 13.4727V-0.000556946Z" fill="white"/>
<path d="M49.7285 -0.000556946L49.7292 -0.400556L49.3285 -0.401275V-0.000556946H49.7285ZM49.7285 13.4727H49.3285V13.8734L49.7292 13.8727L49.7285 13.4727ZM49.7278 0.399442C53.2221 0.405712 56.0528 3.24031 56.0528 6.73605H56.8528C56.8528 2.79896 53.6647 -0.393495 49.7292 -0.400556L49.7278 0.399442ZM56.0528 6.73605C56.0528 10.2318 53.2221 13.0664 49.7278 13.0727L49.7292 13.8727C53.6647 13.8656 56.8528 10.6731 56.8528 6.73605H56.0528ZM50.1285 13.4727V-0.000556946H49.3285V13.4727H50.1285Z" fill="black" mask="url(#path-33-inside-12_596_1343)"/>
<mask id="path-35-inside-13_596_1343" fill="white">
<path fill-rule="evenodd" clip-rule="evenodd" d="M7.6953 36.5478C11.4101 36.5545 14.4196 39.568 14.4196 43.2844C14.4196 47.0008 11.4101 50.0144 7.6953 50.021L7.6953 36.5478Z"/>
</mask>
<path fill-rule="evenodd" clip-rule="evenodd" d="M7.6953 36.5478C11.4101 36.5545 14.4196 39.568 14.4196 43.2844C14.4196 47.0008 11.4101 50.0144 7.6953 50.021L7.6953 36.5478Z" fill="white"/>
<path d="M7.6953 36.5478L7.69601 36.1478L7.2953 36.1471V36.5478H7.6953ZM7.6953 50.021H7.2953V50.4217L7.69601 50.421L7.6953 50.021ZM7.69458 36.9478C11.1888 36.9541 14.0196 39.7887 14.0196 43.2844H14.8196C14.8196 39.3473 11.6315 36.1549 7.69601 36.1478L7.69458 36.9478ZM14.0196 43.2844C14.0196 46.7801 11.1888 49.6147 7.69458 49.621L7.69601 50.421C11.6315 50.414 14.8196 47.2215 14.8196 43.2844H14.0196ZM8.0953 50.021V36.5478H7.2953L7.2953 50.021H8.0953Z" fill="black" mask="url(#path-35-inside-13_596_1343)"/>
<mask id="path-37-inside-14_596_1343" fill="white">
<path fill-rule="evenodd" clip-rule="evenodd" d="M32.8047 71.0273C29.0898 71.0339 26.0804 74.0475 26.0804 77.7639C26.0804 81.4803 29.0898 84.4938 32.8047 84.5005V71.0273Z"/>
</mask>
<path fill-rule="evenodd" clip-rule="evenodd" d="M32.8047 71.0273C29.0898 71.0339 26.0804 74.0475 26.0804 77.7639C26.0804 81.4803 29.0898 84.4938 32.8047 84.5005V71.0273Z" fill="white"/>
<path d="M32.8047 71.0273L32.804 70.6273L33.2047 70.6266V71.0273H32.8047ZM32.8047 84.5005H33.2047V84.9012L32.804 84.9005L32.8047 84.5005ZM32.8054 71.4273C29.3111 71.4335 26.4804 74.2681 26.4804 77.7639H25.6804C25.6804 73.8268 28.8685 70.6343 32.804 70.6273L32.8054 71.4273ZM26.4804 77.7639C26.4804 81.2596 29.3111 84.0942 32.8054 84.1005L32.804 84.9005C28.8685 84.8934 25.6804 81.701 25.6804 77.7639H26.4804ZM32.4047 84.5005V71.0273H33.2047V84.5005H32.4047Z" fill="black" mask="url(#path-37-inside-14_596_1343)"/>
<path d="M51.2292 0.333008L49.832 1.53056" stroke="black" stroke-width="0.4"/>
<path d="M9.25066 36.8579L7.85352 38.0555" stroke="black" stroke-width="0.4"/>
<path d="M31.2689 71.3213L32.666 72.5854" stroke="black" stroke-width="0.4"/>
<path d="M8.85148 36.8579L7.85352 37.7893" stroke="black" stroke-width="0.4"/>
<path d="M31.6681 71.3213L32.666 72.2527" stroke="black" stroke-width="0.4"/>
<path d="M8.58535 36.792L7.85352 37.5238" stroke="black" stroke-width="0.4"/>
<path d="M31.9342 71.2544L32.666 71.9862" stroke="black" stroke-width="0.4"/>
<path d="M51.6284 0.333008L49.832 1.92975" stroke="black" stroke-width="0.4"/>
<path d="M9.58331 36.8579L7.85352 38.4546" stroke="black" stroke-width="0.4"/>
<path d="M30.9362 71.3213L32.666 72.9846" stroke="black" stroke-width="0.4"/>
<path d="M51.8945 0.398926L49.832 2.26179" stroke="black" stroke-width="0.4"/>
<path d="M9.84944 36.9248L7.85352 38.7877" stroke="black" stroke-width="0.4"/>
<path d="M30.6701 71.4536L32.666 73.2499" stroke="black" stroke-width="0.4"/>
<path d="M52.0941 0.531738L49.832 2.66072" stroke="black" stroke-width="0.4"/>
<path d="M10.0452 37.0576L7.7832 39.1866" stroke="black" stroke-width="0.4"/>
<path d="M30.4704 71.5864L32.7324 73.6489" stroke="black" stroke-width="0.4"/>
<path d="M52.2271 0.665039L49.832 2.86055" stroke="black" stroke-width="0.4"/>
<path d="M10.1821 37.1909L7.85352 39.453" stroke="black" stroke-width="0.4"/>
<path d="M30.3374 71.7197L32.666 73.9152" stroke="black" stroke-width="0.4"/>
<path d="M52.4267 0.731934L49.832 3.2601" stroke="black" stroke-width="0.4"/>
<path d="M10.3817 37.3237L7.85352 39.7854" stroke="black" stroke-width="0.4"/>
<path d="M30.1378 71.7866L32.666 74.2483" stroke="black" stroke-width="0.4"/>
<path d="M52.6263 0.864746L49.832 3.59251" stroke="black" stroke-width="0.4"/>
<path d="M10.5813 37.3901L7.85352 40.1179" stroke="black" stroke-width="0.4"/>
<path d="M29.9383 71.8535L32.666 74.6478" stroke="black" stroke-width="0.4"/>
<path d="M52.7594 0.931152L49.832 3.8585" stroke="black" stroke-width="0.4"/>
<path d="M10.7143 37.5229L7.85352 40.3838" stroke="black" stroke-width="0.4"/>
<path d="M29.8052 71.9863L32.666 74.9137" stroke="black" stroke-width="0.4"/>
<path d="M52.8924 1.06396L49.832 4.12438" stroke="black" stroke-width="0.4"/>
<path d="M10.9139 37.5898L7.85352 40.6503" stroke="black" stroke-width="0.4"/>
<path d="M29.6056 72.0527L32.666 75.1797" stroke="black" stroke-width="0.4"/>
<path d="M53.092 1.13086L49.832 4.4574" stroke="black" stroke-width="0.4"/>
<path d="M11.047 37.6558L7.85352 40.9823" stroke="black" stroke-width="0.4"/>
<path d="M29.406 72.1196L32.666 75.4462" stroke="black" stroke-width="0.4"/>
<path d="M53.2251 1.19678L49.832 4.78944" stroke="black" stroke-width="0.4"/>
<path d="M11.1801 37.7891L7.85352 41.3152" stroke="black" stroke-width="0.4"/>
<path d="M29.2729 72.2524L32.666 75.7786" stroke="black" stroke-width="0.4"/>
<path d="M53.5037 1.21406L49.8649 5.0826" stroke="black" stroke-width="0.4"/>
<path d="M11.4704 37.7619L7.83166 41.6305" stroke="black" stroke-width="0.4"/>
<path d="M29.0296 72.2409L32.6683 76.1095" stroke="black" stroke-width="0.4"/>
<path d="M53.4912 1.46387L49.832 5.45571" stroke="black" stroke-width="0.4"/>
<path d="M11.4462 37.9893L7.85352 41.9811" stroke="black" stroke-width="0.4"/>
<path d="M29.0068 72.4517L32.666 76.4435" stroke="black" stroke-width="0.4"/>
<path d="M53.7573 1.46387L49.832 5.72183" stroke="black" stroke-width="0.4"/>
<path d="M11.7085 38.0552L7.7832 42.3131" stroke="black" stroke-width="0.4"/>
<path d="M28.8071 72.5186L32.7324 76.7765" stroke="black" stroke-width="0.4"/>
<path d="M53.8925 1.53027L49.7676 6.05436" stroke="black" stroke-width="0.4"/>
<path d="M11.8437 38.0552L7.71875 42.6458" stroke="black" stroke-width="0.4"/>
<path d="M28.674 72.5845L32.7324 77.1086" stroke="black" stroke-width="0.4"/>
<path d="M53.9569 1.72998L49.832 6.3206" stroke="black" stroke-width="0.4"/>
<path d="M11.9081 38.2549L7.7832 42.912" stroke="black" stroke-width="0.4"/>
<path d="M28.6075 72.7178L32.7324 77.3749" stroke="black" stroke-width="0.4"/>
<path d="M54.09 1.7959L49.832 6.58611" stroke="black" stroke-width="0.4"/>
<path d="M12.0412 38.3223L7.7832 43.1125" stroke="black" stroke-width="0.4"/>
<path d="M28.4745 72.8506L32.7324 77.5743" stroke="black" stroke-width="0.4"/>
<path d="M54.1565 1.9292L49.832 6.85247" stroke="black" stroke-width="0.4"/>
<path d="M12.1742 38.4541L7.7832 43.3774" stroke="black" stroke-width="0.4"/>
<path d="M28.3414 72.9839L32.7324 77.8406" stroke="black" stroke-width="0.4"/>
<path d="M54.2917 1.99609L49.7676 7.11896" stroke="black" stroke-width="0.4"/>
<path d="M12.2428 38.5884L7.71875 43.7112" stroke="black" stroke-width="0.4"/>
<path d="M28.2749 73.0508L32.7324 78.1736" stroke="black" stroke-width="0.4"/>
<path d="M54.3561 2.12939L49.832 7.25226" stroke="black" stroke-width="0.4"/>
<path d="M12.3111 38.7212L7.85352 43.8441" stroke="black" stroke-width="0.4"/>
<path d="M28.1419 73.1836L32.666 78.3065" stroke="black" stroke-width="0.4"/>
<path d="M54.4892 2.26221L49.832 7.58466" stroke="black" stroke-width="0.4"/>
<path d="M12.4441 38.7871L7.85352 44.1096" stroke="black" stroke-width="0.4"/>
<path d="M28.0089 73.251L32.666 78.5734" stroke="black" stroke-width="0.4"/>
<path d="M54.6222 2.39502L49.832 7.91707" stroke="black" stroke-width="0.4"/>
<path d="M12.5734 38.9873L7.7832 44.4428" stroke="black" stroke-width="0.4"/>
<path d="M27.8757 73.4497L32.7324 78.9718" stroke="black" stroke-width="0.4"/>
<path d="M54.7553 2.59424L49.832 8.11629" stroke="black" stroke-width="0.4"/>
<path d="M12.7103 39.1865L7.85352 44.7086" stroke="black" stroke-width="0.4"/>
<path d="M27.7427 73.6489L32.666 79.171" stroke="black" stroke-width="0.4"/>
<path d="M55.0214 2.66113L49.832 8.51584" stroke="black" stroke-width="0.4"/>
<path d="M12.9764 39.1865L7.85352 45.0412" stroke="black" stroke-width="0.4"/>
<path d="M27.5431 73.6489L32.666 79.5036" stroke="black" stroke-width="0.4"/>
<path d="M55.0214 2.86035L49.832 8.84812" stroke="black" stroke-width="0.4"/>
<path d="M12.9764 39.4521L7.85352 45.3734" stroke="black" stroke-width="0.4"/>
<path d="M27.4766 73.916L32.666 79.9038" stroke="black" stroke-width="0.4"/>
<path d="M55.1545 2.99316L49.832 9.11399" stroke="black" stroke-width="0.4"/>
<path d="M13.1094 39.5864L7.85352 45.6407" stroke="black" stroke-width="0.4"/>
<path d="M27.4101 74.0488L32.666 80.1697" stroke="black" stroke-width="0.4"/>
<path d="M55.2876 3.12646L49.832 9.51341" stroke="black" stroke-width="0.4"/>
<path d="M13.2387 39.7183L7.7832 46.0387" stroke="black" stroke-width="0.4"/>
<path d="M27.2769 74.1821L32.7324 80.5025" stroke="black" stroke-width="0.4"/>
<path d="M55.4206 3.32617L49.832 9.77965" stroke="black" stroke-width="0.4"/>
<path d="M13.3718 39.8516L7.7832 46.3716" stroke="black" stroke-width="0.4"/>
<path d="M27.1438 74.3809L32.7324 80.8343" stroke="black" stroke-width="0.4"/>
<path d="M55.4871 3.45947L49.832 10.1125" stroke="black" stroke-width="0.4"/>
<path d="M13.4383 39.9844L7.7832 46.6374" stroke="black" stroke-width="0.4"/>
<path d="M27.0773 74.5142L32.7324 81.1672" stroke="black" stroke-width="0.4"/>
<path d="M55.5537 3.65967L49.832 10.3793" stroke="black" stroke-width="0.4"/>
<path d="M13.5714 40.1846L7.7832 46.9042" stroke="black" stroke-width="0.4"/>
<path d="M26.9442 74.647L32.7324 81.4331" stroke="black" stroke-width="0.4"/>
<path d="M55.6867 3.79248L49.832 10.6451" stroke="black" stroke-width="0.4"/>
<path d="M13.6379 40.3843L7.7832 47.1704" stroke="black" stroke-width="0.4"/>
<path d="M26.8777 74.8472L32.7324 81.6998" stroke="black" stroke-width="0.4"/>
<path d="M55.7533 3.9917L49.832 10.9109" stroke="black" stroke-width="0.4"/>
<path d="M13.7082 40.5176L7.85352 47.5033" stroke="black" stroke-width="0.4"/>
<path d="M26.8113 75.0469L32.666 81.9661" stroke="black" stroke-width="0.4"/>
<path d="M55.8893 4.13609L49.8746 11.2467" stroke="black" stroke-width="0.4"/>
<path d="M13.856 40.683L7.84137 47.7936" stroke="black" stroke-width="0.4"/>
<path d="M26.6479 75.1629L32.6625 82.2736" stroke="black" stroke-width="0.4"/>
<path d="M55.8856 4.45094L49.8359 11.6964" stroke="black" stroke-width="0.4"/>
<path d="M13.8563 40.9978L7.80658 48.2433" stroke="black" stroke-width="0.4"/>
<path d="M26.6476 75.4778L32.6973 82.7233" stroke="black" stroke-width="0.4"/>
<path d="M56.0674 4.58534L49.8832 12.0106" stroke="black" stroke-width="0.4"/>
<path d="M14.0342 41.1322L7.85003 48.5575" stroke="black" stroke-width="0.4"/>
<path d="M26.4658 75.6122L32.65 83.0375" stroke="black" stroke-width="0.4"/>
<path d="M56.0205 4.99012L49.8364 12.4154" stroke="black" stroke-width="0.4"/>
<path d="M13.9912 41.5375L7.80706 48.9628" stroke="black" stroke-width="0.4"/>
<path d="M26.5127 76.017L32.6968 83.4422" stroke="black" stroke-width="0.4"/>
<path d="M56.157 5.2599L49.8834 12.7301" stroke="black" stroke-width="0.4"/>
<path d="M14.1238 41.8068L7.85015 49.277" stroke="black" stroke-width="0.4"/>
<path d="M26.3762 76.2868L32.6498 83.7569" stroke="black" stroke-width="0.4"/>
<path d="M56.2918 5.57448L49.8835 13.0896" stroke="black" stroke-width="0.4"/>
<path d="M14.2586 42.1214L7.85027 49.6365" stroke="black" stroke-width="0.4"/>
<path d="M26.2414 76.6013L32.6497 84.1165" stroke="black" stroke-width="0.4"/>
<path d="M56.3836 5.8445L49.9753 13.3596" stroke="black" stroke-width="0.4"/>
<path d="M14.3504 42.3914L7.94207 49.9065" stroke="black" stroke-width="0.4"/>
<path d="M26.1535 76.8714L32.5618 84.3865" stroke="black" stroke-width="0.4"/>
<path d="M56.3785 6.33907L50.3099 13.3519" stroke="black" stroke-width="0.4"/>
<path d="M14.3492 42.8859L8.28056 49.8987" stroke="black" stroke-width="0.4"/>
<path d="M26.1547 77.3659L32.2233 84.3787" stroke="black" stroke-width="0.4"/>
<path d="M56.3819 6.74293L50.6916 13.3511" stroke="black" stroke-width="0.4"/>
<path d="M14.3487 43.2908L8.65838 49.899" stroke="black" stroke-width="0.4"/>
<path d="M26.1513 77.7708L31.8416 84.379" stroke="black" stroke-width="0.4"/>
<path d="M56.3812 7.14716L51.2115 13.171" stroke="black" stroke-width="0.4"/>
<path d="M14.348 43.695L9.1783 49.7188" stroke="black" stroke-width="0.4"/>
<path d="M26.152 78.175L31.3217 84.1988" stroke="black" stroke-width="0.4"/>
<path d="M56.2909 7.55211L51.5424 13.1714" stroke="black" stroke-width="0.4"/>
<path d="M14.2596 44.1005L9.51119 49.7197" stroke="black" stroke-width="0.4"/>
<path d="M26.2423 78.579L30.9908 84.1982" stroke="black" stroke-width="0.4"/>
<path d="M56.1566 8.09209L52.1106 12.9022" stroke="black" stroke-width="0.4"/>
<path d="M14.1253 44.639L10.0793 49.4491" stroke="black" stroke-width="0.4"/>
<path d="M26.3766 79.1189L30.4226 83.9291" stroke="black" stroke-width="0.4"/>
<path d="M56.0685 8.49638L52.5621 12.7221" stroke="black" stroke-width="0.4"/>
<path d="M14.0353 45.0442L10.5289 49.2699" stroke="black" stroke-width="0.4"/>
<path d="M26.4647 79.5242L29.9711 83.7499" stroke="black" stroke-width="0.4"/>
<path d="M56.0231 8.85612L53.1912 12.4075" stroke="black" stroke-width="0.4"/>
<path d="M13.9899 45.404L11.158 48.9554" stroke="black" stroke-width="0.4"/>
<path d="M26.514 79.883L29.3459 83.4344" stroke="black" stroke-width="0.4"/>
<path d="M64.0295 73.3304C65.6135 73.3304 66.8935 73.7784 67.8695 74.6744C68.8455 75.5704 69.3335 76.7704 69.3335 78.2744C69.3335 79.9544 68.8135 81.2024 67.7735 82.0184C66.7335 82.8184 65.3255 83.2184 63.5495 83.2184L63.4775 85.4984H61.5815L61.4855 81.7064H62.1815C63.7655 81.7064 65.0055 81.4664 65.9015 80.9864C66.7975 80.5064 67.2455 79.6024 67.2455 78.2744C67.2455 77.3144 66.9575 76.5544 66.3815 75.9944C65.8055 75.4344 65.0295 75.1544 64.0535 75.1544C63.0615 75.1544 62.2775 75.4264 61.7015 75.9704C61.1415 76.4984 60.8615 77.2264 60.8615 78.1544H58.7975C58.7975 77.1944 59.0135 76.3544 59.4455 75.6344C59.8775 74.8984 60.4855 74.3304 61.2695 73.9304C62.0695 73.5304 62.9895 73.3304 64.0295 73.3304ZM62.5175 90.4184C62.1015 90.4184 61.7495 90.2744 61.4615 89.9864C61.1735 89.6984 61.0295 89.3464 61.0295 88.9304C61.0295 88.5144 61.1735 88.1624 61.4615 87.8744C61.7495 87.5864 62.1015 87.4424 62.5175 87.4424C62.9175 87.4424 63.2535 87.5864 63.5255 87.8744C63.8135 88.1624 63.9575 88.5144 63.9575 88.9304C63.9575 89.3464 63.8135 89.6984 63.5255 89.9864C63.2535 90.2744 62.9175 90.4184 62.5175 90.4184Z" fill="black"/>
</svg>
