<svg width="3472" height="751" viewBox="0 0 3472 751" fill="none" xmlns="http://www.w3.org/2000/svg">
<rect x="5" y="47" width="581" height="657" fill="white" stroke="black" stroke-width="10"/>
<rect x="939" y="5" width="656" height="741" fill="white" stroke="black" stroke-width="10"/>
<rect x="1879" y="5" width="656" height="741" fill="white" stroke="black" stroke-width="10"/>
<rect x="2811" y="5" width="656" height="741" fill="white" stroke="black" stroke-width="10"/>
<path d="M349.909 376H186.159L84 100H443L349.909 376Z" fill="white" stroke="black" stroke-width="10"/>
<path d="M2289.5 413H2130.31L2031 137H2380L2289.5 413Z" fill="black" stroke="black" stroke-width="5"/>
<path d="M2289.5 413H2130.31L2031 689H2380L2289.5 413Z" fill="white" stroke="black" stroke-width="10"/>
<path d="M663.5 705C663.5 716.667 656.77 727.481 645.379 735.481C633.995 743.476 618.136 748.5 600.5 748.5C582.864 748.5 567.005 743.476 555.621 735.481C544.23 727.481 537.5 716.667 537.5 705C537.5 693.333 544.23 682.519 555.621 674.519C567.005 666.524 582.864 661.5 600.5 661.5C618.136 661.5 633.995 666.524 645.379 674.519C656.77 682.519 663.5 693.333 663.5 705Z" fill="white" stroke="black" stroke-width="5"/>
<path d="M1060.5 705C1060.5 716.667 1053.77 727.481 1042.38 735.481C1030.99 743.476 1015.14 748.5 997.5 748.5C979.864 748.5 964.005 743.476 952.621 735.481C941.23 727.481 934.5 716.667 934.5 705C934.5 693.333 941.23 682.519 952.621 674.519C964.005 666.524 979.864 661.5 997.5 661.5C1015.14 661.5 1030.99 666.524 1042.38 674.519C1053.77 682.519 1060.5 693.333 1060.5 705Z" fill="white" stroke="black" stroke-width="5"/>
<path d="M2002.5 46C2002.5 57.6666 1995.77 68.481 1984.38 76.481C1972.99 84.4759 1957.14 89.5 1939.5 89.5C1921.86 89.5 1906.01 84.4759 1894.62 76.481C1883.23 68.481 1876.5 57.6666 1876.5 46C1876.5 34.3334 1883.23 23.519 1894.62 15.519C1906.01 7.52412 1921.86 2.5 1939.5 2.5C1957.14 2.5 1972.99 7.52412 1984.38 15.519C1995.77 23.519 2002.5 34.3334 2002.5 46Z" fill="white" stroke="black" stroke-width="5"/>
<path d="M1316.8 69H1092.09L998 230.676L1092.09 406H1316.8L1414 230.676L1316.8 69Z" fill="white" stroke="black" stroke-width="10"/>
<path d="M3136.48 204.9C3159.58 204.9 3178.24 211.433 3192.48 224.5C3206.71 237.567 3213.83 255.067 3213.83 277C3213.83 301.5 3206.24 319.7 3191.08 331.6C3175.91 343.267 3155.38 349.1 3129.48 349.1L3128.43 382.35H3100.78L3099.38 327.05H3109.53C3132.63 327.05 3150.71 323.55 3163.78 316.55C3176.84 309.55 3183.38 296.367 3183.38 277C3183.38 263 3179.18 251.917 3170.78 243.75C3162.38 235.583 3151.06 231.5 3136.83 231.5C3122.36 231.5 3110.93 235.467 3102.53 243.4C3094.36 251.1 3090.28 261.717 3090.28 275.25H3060.18C3060.18 261.25 3063.33 249 3069.63 238.5C3075.93 227.767 3084.79 219.483 3096.23 213.65C3107.89 207.817 3121.31 204.9 3136.48 204.9ZM3114.43 454.1C3108.36 454.1 3103.23 452 3099.03 447.8C3094.83 443.6 3092.73 438.467 3092.73 432.4C3092.73 426.333 3094.83 421.2 3099.03 417C3103.23 412.8 3108.36 410.7 3114.43 410.7C3120.26 410.7 3125.16 412.8 3129.13 417C3133.33 421.2 3135.43 426.333 3135.43 432.4C3135.43 438.467 3133.33 443.6 3129.13 447.8C3125.16 452 3120.26 454.1 3114.43 454.1Z" fill="black"/>
</svg>
