<svg width="6672" height="1233" viewBox="0 0 6672 1233" fill="none" xmlns="http://www.w3.org/2000/svg">
<ellipse cx="568" cy="491" rx="568" ry="438" fill="black"/>
<ellipse cx="568" cy="491" rx="435" ry="326" fill="white"/>
<ellipse cx="567.5" cy="490.5" rx="260.5" ry="190.5" fill="black"/>
<rect x="350.5" y="307.5" width="130" height="130" fill="white" stroke="black" stroke-width="15"/>
<rect x="1329" y="58" width="1211" height="866" fill="black" stroke="black" stroke-width="10"/>
<rect x="1511" y="206" width="848" height="606" fill="white" stroke="black" stroke-width="10"/>
<rect x="1666" y="306" width="538" height="383" fill="black" stroke="black" stroke-width="10"/>
<path d="M1987.84 364L2058.5 303.296L2129.16 364L2058.5 424.704L1987.84 364Z" fill="white" stroke="black" stroke-width="5"/>
<path d="M2869.88 490.5L3447.5 3.27059L4025.12 490.5L3447.5 977.729L2869.88 490.5Z" fill="black" stroke="black" stroke-width="5"/>
<path d="M3019.88 490.5L3448 129.271L3876.12 490.5L3448 851.729L3019.88 490.5Z" fill="white" stroke="black" stroke-width="5"/>
<path d="M3155.88 490.5L3447.5 244.272L3739.12 490.5L3447.5 736.728L3155.88 490.5Z" fill="black" stroke="black" stroke-width="5"/>
<path d="M3434.92 730.5L3512 597L3589.08 730.5H3434.92Z" fill="white" stroke="black" stroke-width="10"/>
<path d="M4833.5 0L5367.4 924.75H4299.6L4833.5 0Z" fill="black"/>
<path d="M4833.5 165L5218.45 831.75H4448.55L4833.5 165Z" fill="white"/>
<path d="M4834 265L5132.78 782.5H4535.22L4834 265Z" fill="black"/>
<path d="M4683.66 776H4630.29L4597 686H4714L4683.66 776Z" fill="white" stroke="black" stroke-width="10"/>
<rect x="5776" y="58" width="891" height="883" fill="white" stroke="black" stroke-width="10"/>
<path d="M6202.48 331.9C6225.58 331.9 6244.24 338.433 6258.48 351.5C6272.71 364.567 6279.83 382.067 6279.83 404C6279.83 428.5 6272.24 446.7 6257.08 458.6C6241.91 470.267 6221.38 476.1 6195.48 476.1L6194.43 509.35H6166.78L6165.38 454.05H6175.53C6198.63 454.05 6216.71 450.55 6229.78 443.55C6242.84 436.55 6249.38 423.367 6249.38 404C6249.38 390 6245.18 378.917 6236.78 370.75C6228.38 362.583 6217.06 358.5 6202.83 358.5C6188.36 358.5 6176.93 362.467 6168.53 370.4C6160.36 378.1 6156.28 388.717 6156.28 402.25H6126.18C6126.18 388.25 6129.33 376 6135.63 365.5C6141.93 354.767 6150.79 346.483 6162.23 340.65C6173.89 334.817 6187.31 331.9 6202.48 331.9ZM6180.43 581.1C6174.36 581.1 6169.23 579 6165.03 574.8C6160.83 570.6 6158.73 565.467 6158.73 559.4C6158.73 553.333 6160.83 548.2 6165.03 544C6169.23 539.8 6174.36 537.7 6180.43 537.7C6186.26 537.7 6191.16 539.8 6195.13 544C6199.33 548.2 6201.43 553.333 6201.43 559.4C6201.43 565.467 6199.33 570.6 6195.13 574.8C6191.16 579 6186.26 581.1 6180.43 581.1Z" fill="black"/>
</svg>
