<svg width="5092" height="1019" viewBox="0 0 5092 1019" fill="none" xmlns="http://www.w3.org/2000/svg">
<rect x="5" y="11" width="891" height="883" fill="white" stroke="black" stroke-width="10"/>
<rect x="4196" y="5" width="891" height="883" fill="white" stroke="black" stroke-width="10"/>
<path d="M582.9 630H332.942L177 269H725L582.9 630Z" fill="black" stroke="black" stroke-width="5"/>
<path d="M1717.7 790H1310.83L1057 124H1949L1717.7 790Z" fill="white" stroke="black" stroke-width="10"/>
<path d="M1628.93 260H1383.68L1281 390.972L1383.68 533H1628.93L1735 390.972L1628.93 260Z" fill="black" stroke="black" stroke-width="5"/>
<path d="M2800.75 121H2363.2L2180 436.196L2363.2 778H2800.75L2990 436.196L2800.75 121Z" fill="white" stroke="black" stroke-width="10"/>
<path d="M2585 234L2769.46 553.5H2400.54L2585 234Z" fill="black"/>
<path d="M3160.2 770.75L3527 56.9398L3893.8 770.75H3160.2Z" fill="white" stroke="black" stroke-width="10"/>
<ellipse cx="3527" cy="415" rx="142" ry="111" fill="black"/>
<path d="M4622.48 278.9C4645.58 278.9 4664.24 285.433 4678.48 298.5C4692.71 311.567 4699.83 329.067 4699.83 351C4699.83 375.5 4692.24 393.7 4677.08 405.6C4661.91 417.267 4641.38 423.1 4615.48 423.1L4614.43 456.35H4586.78L4585.38 401.05H4595.53C4618.63 401.05 4636.71 397.55 4649.78 390.55C4662.84 383.55 4669.38 370.367 4669.38 351C4669.38 337 4665.18 325.917 4656.78 317.75C4648.38 309.583 4637.06 305.5 4622.83 305.5C4608.36 305.5 4596.93 309.467 4588.53 317.4C4580.36 325.1 4576.28 335.717 4576.28 349.25H4546.18C4546.18 335.25 4549.33 323 4555.63 312.5C4561.93 301.767 4570.79 293.483 4582.23 287.65C4593.89 281.817 4607.31 278.9 4622.48 278.9ZM4600.43 528.1C4594.36 528.1 4589.23 526 4585.03 521.8C4580.83 517.6 4578.73 512.467 4578.73 506.4C4578.73 500.333 4580.83 495.2 4585.03 491C4589.23 486.8 4594.36 484.7 4600.43 484.7C4606.26 484.7 4611.16 486.8 4615.13 491C4619.33 495.2 4621.43 500.333 4621.43 506.4C4621.43 512.467 4619.33 517.6 4615.13 521.8C4611.16 526 4606.26 528.1 4600.43 528.1Z" fill="black"/>
</svg>
