<svg width="6116" height="1154" viewBox="0 0 6116 1154" fill="none" xmlns="http://www.w3.org/2000/svg">
<rect x="7.5" y="215.5" width="1233" height="710" fill="white" stroke="black" stroke-width="15"/>
<rect x="2970.5" y="201.5" width="1233" height="710" fill="white" stroke="black" stroke-width="15"/>
<rect x="1677.5" y="139.5" width="942" height="786" fill="white" stroke="black" stroke-width="15"/>
<path d="M3.79134 293.5L89.5 218.325L175.209 293.5L89.5 368.675L3.79134 293.5Z" fill="black" stroke="black" stroke-width="5"/>
<path d="M3856.79 840.5L3942.5 765.325L4028.21 840.5L3942.5 915.675L3856.79 840.5Z" fill="black" stroke="black" stroke-width="5"/>
<path d="M3677.79 840.5L3763.5 765.325L3849.21 840.5L3763.5 915.675L3677.79 840.5Z" fill="black" stroke="black" stroke-width="5"/>
<path d="M4035.79 840.5L4121.5 765.325L4207.21 840.5L4121.5 915.675L4035.79 840.5Z" fill="black" stroke="black" stroke-width="5"/>
<path d="M800 587.5C800 622.584 762.955 653 714.5 653C666.045 653 629 622.584 629 587.5C629 552.416 666.045 522 714.5 522C762.955 522 800 552.416 800 587.5Z" fill="white" stroke="black" stroke-width="10"/>
<path d="M3668 551.5C3668 586.584 3630.95 617 3582.5 617C3534.05 617 3497 586.584 3497 551.5C3497 516.416 3534.05 486 3582.5 486C3630.95 486 3668 516.416 3668 551.5Z" fill="white" stroke="black" stroke-width="10"/>
<path d="M2449 210.5C2449 245.584 2411.95 276 2363.5 276C2315.05 276 2278 245.584 2278 210.5C2278 175.416 2315.05 145 2363.5 145C2411.95 145 2449 175.416 2449 210.5Z" fill="white" stroke="black" stroke-width="10"/>
<path d="M2622 210.5C2622 245.584 2584.95 276 2536.5 276C2488.05 276 2451 245.584 2451 210.5C2451 175.416 2488.05 145 2536.5 145C2584.95 145 2622 175.416 2622 210.5Z" fill="white" stroke="black" stroke-width="10"/>
<path d="M2168 497.5C2168 526.529 2137.42 552 2097 552C2056.58 552 2026 526.529 2026 497.5C2026 468.471 2056.58 443 2097 443C2137.42 443 2168 468.471 2168 497.5Z" fill="black" stroke="black" stroke-width="10"/>
<path d="M630 132L586.699 207L673.301 207L630 132ZM622.5 199.5L622.5 617L637.5 617L637.5 199.5L622.5 199.5Z" fill="black"/>
<path d="M1584 494L1659 537.301V450.699L1584 494ZM1651.5 501.5L2039 501.5V486.5L1651.5 486.5V501.5Z" fill="black"/>
<path d="M3672.5 998.5L3715.8 923.5H3629.2L3672.5 998.5ZM3680 931V543.5H3665V931H3680Z" fill="black"/>
<rect x="4739.5" y="7.5" width="1369" height="1139" fill="white" stroke="black" stroke-width="15"/>
<path d="M5421.48 452.9C5444.58 452.9 5463.24 459.433 5477.48 472.5C5491.71 485.567 5498.83 503.067 5498.83 525C5498.83 549.5 5491.24 567.7 5476.08 579.6C5460.91 591.267 5440.38 597.1 5414.48 597.1L5413.43 630.35H5385.78L5384.38 575.05H5394.53C5417.63 575.05 5435.71 571.55 5448.78 564.55C5461.84 557.55 5468.38 544.367 5468.38 525C5468.38 511 5464.18 499.917 5455.78 491.75C5447.38 483.583 5436.06 479.5 5421.83 479.5C5407.36 479.5 5395.93 483.467 5387.53 491.4C5379.36 499.1 5375.28 509.717 5375.28 523.25H5345.18C5345.18 509.25 5348.33 497 5354.63 486.5C5360.93 475.767 5369.79 467.483 5381.23 461.65C5392.89 455.817 5406.31 452.9 5421.48 452.9ZM5399.43 702.1C5393.36 702.1 5388.23 700 5384.03 695.8C5379.83 691.6 5377.73 686.467 5377.73 680.4C5377.73 674.333 5379.83 669.2 5384.03 665C5388.23 660.8 5393.36 658.7 5399.43 658.7C5405.26 658.7 5410.16 660.8 5414.13 665C5418.33 669.2 5420.43 674.333 5420.43 680.4C5420.43 686.467 5418.33 691.6 5414.13 695.8C5410.16 700 5405.26 702.1 5399.43 702.1Z" fill="black"/>
</svg>
